<svg version="1.1" id="Layer_1" xmlns="http://www.w3.org/2000/svg" xmlns:xlink="http://www.w3.org/1999/xlink" x="0px" y="0px"
	 width="100%" viewBox="0 0 500 500" enable-background="new 0 0 500 500" xml:space="preserve">
<path fill="#000000" opacity="1.000000" stroke="none" 
	d="
M348.000000,501.000000 
	C232.000031,501.000000 116.500053,501.000000 1.000062,501.000000 
	C1.000041,334.333405 1.000041,167.666794 1.000021,1.000151 
	C167.666550,1.000101 334.333099,1.000101 500.999756,1.000051 
	C500.999817,167.666519 500.999817,334.333038 500.999908,500.999786 
	C450.166656,501.000000 399.333344,501.000000 348.000000,501.000000 
M345.148346,248.607773 
	C345.378113,247.982254 345.607880,247.356735 345.929596,245.831360 
	C345.961578,220.722290 346.002686,195.613220 346.017548,170.504150 
	C346.020416,165.682938 344.246857,162.033020 339.789246,159.475266 
	C305.560486,139.835007 271.417694,120.044952 237.204376,100.377655 
	C235.738800,99.535187 233.843628,99.440079 231.382401,99.089462 
	C227.799759,100.162979 227.953537,103.084961 227.954483,105.959862 
	C227.962418,130.185104 227.953888,154.410339 227.974152,178.635559 
	C227.975388,180.121033 227.792236,181.779999 228.366058,183.056534 
	C229.667053,185.950714 227.789932,186.843857 225.310623,188.277863 
	C202.854630,201.314056 180.398651,214.350235 157.362656,227.568054 
	C155.171967,231.170593 155.281219,233.896637 159.459991,236.294617 
	C193.604568,255.888504 227.682190,275.599335 261.729401,295.362091 
	C265.765289,297.704712 269.436890,297.722931 273.425049,295.412628 
	C294.701050,283.087463 316.045258,270.879517 337.261810,258.453339 
	C338.804321,257.549927 339.521271,255.236923 340.951965,252.912872 
	C341.993042,251.603928 343.034088,250.294983 344.220856,248.795090 
	C344.220856,248.795090 344.459900,248.771561 345.148346,248.607773 
z"/>
<path fill="#F1B1A5" opacity="1.000000" stroke="none" 
	d="
M157.942673,227.386414 
	C180.398651,214.350235 202.854630,201.314056 226.017700,188.124634 
	C228.497879,188.218643 230.522797,187.998535 232.000107,188.794647 
	C238.148834,192.108078 244.153030,195.693344 250.154877,199.271774 
	C251.053909,199.807800 251.735825,200.780640 252.381653,201.652542 
	C253.500046,203.162384 254.157440,205.352295 255.622009,206.215393 
	C272.678223,216.266769 289.840576,226.138367 307.006134,236.003128 
	C308.417236,236.814072 310.297455,238.046417 311.546936,237.679062 
	C316.091125,236.343018 319.110596,239.099533 322.481232,241.001633 
	C327.406830,243.781189 332.344452,246.547729 337.153687,249.519287 
	C338.363861,250.267029 339.105225,251.773544 340.058044,252.950745 
	C340.054077,252.970123 340.036774,252.931030 339.731140,252.945251 
	C338.996735,253.286301 338.567963,253.613113 337.833282,254.102890 
	C332.465271,257.387695 327.466370,260.618073 322.329071,263.610779 
	C307.668274,272.151428 293.085114,280.843048 278.167908,288.914307 
	C274.115662,291.106842 270.256256,295.736053 264.228912,292.165680 
	C253.154251,285.605438 241.699097,279.691101 230.543137,273.263519 
	C216.903946,265.405243 203.452515,257.221619 189.837891,249.319992 
	C179.940369,243.575668 169.920853,238.040817 159.929718,232.459122 
	C157.797440,231.267929 156.259109,229.999115 157.942673,227.386414 
M227.113937,195.441605 
	C226.395157,195.242355 225.676376,195.043106 224.242432,194.919861 
	C222.470963,195.951096 220.699493,196.982330 219.015991,198.016266 
	C219.015991,198.016266 219.022842,197.928528 218.322754,198.033859 
	C216.239761,199.410858 214.156754,200.787857 211.806305,202.478363 
	C211.623489,202.683945 211.428436,202.877182 210.474670,202.959198 
	C208.656860,204.002350 206.839035,205.045486 204.404907,206.100754 
	C204.247833,206.410660 204.090775,206.720566 204.020996,207.015427 
	C204.020996,207.015427 204.010666,206.927414 203.291595,206.778549 
	C201.167801,208.182022 199.044006,209.585480 197.004410,211.012909 
	C197.004410,211.012909 197.030716,210.929398 196.310593,211.125351 
	C194.065079,212.190918 191.819565,213.256485 188.596146,214.786087 
	C191.672699,216.410934 193.659973,217.460480 196.075134,218.832779 
	C196.385742,219.005936 196.696350,219.179077 197.423874,219.827301 
	C199.509308,220.898239 201.594742,221.969177 204.059982,223.475433 
	C204.390976,223.663605 204.721954,223.851791 205.493607,224.528259 
	C207.245453,225.490952 208.997299,226.453644 211.133972,227.734406 
	C211.423492,227.896957 211.720764,228.043808 212.332611,228.778381 
	C214.780975,230.013657 217.229324,231.248932 220.129669,232.814056 
	C220.456497,232.991974 220.783325,233.169891 221.563797,233.797623 
	C232.302658,239.882019 243.041519,245.966415 254.098831,252.483887 
	C254.571762,252.730377 255.044708,252.976868 256.005737,253.709015 
	C258.237640,254.863617 260.469574,256.018219 263.119751,257.609131 
	C263.462585,257.818756 263.805420,258.028351 264.628601,258.707550 
	C267.375488,259.689972 270.122375,260.672394 272.278229,262.141266 
	C274.197876,263.346405 276.117523,264.551514 278.721680,265.956573 
	C281.953217,268.100952 285.329651,270.059082 288.382141,272.433594 
	C292.900574,275.948486 296.617310,275.018921 299.985840,270.985016 
	C299.985840,270.985016 299.983337,271.071716 300.704407,271.090576 
	C302.825287,269.724060 304.946198,268.357544 306.981628,266.979523 
	C306.981628,266.979523 306.965240,267.064209 307.694244,267.007721 
	C312.819977,263.995605 317.945709,260.983490 322.990967,257.980774 
	C322.990967,257.980774 322.996857,258.061584 323.701599,257.964447 
	C325.188110,257.074066 326.674591,256.183685 328.733307,254.950546 
	C326.032928,253.056992 323.942596,251.591202 321.575287,249.479141 
	C320.038269,248.994522 318.501221,248.509903 317.001221,247.998917 
	C317.001221,247.998917 316.984558,248.041183 317.034119,247.330307 
	C313.010162,245.229385 308.986206,243.128464 305.001312,241.000046 
	C305.001312,241.000046 304.981262,241.043472 305.033813,240.320389 
	C302.677460,239.218826 300.321136,238.117264 298.002106,236.995483 
	C298.002106,236.995483 297.993439,237.037048 298.032562,236.313843 
	C295.676788,235.214264 293.320984,234.114685 291.001831,232.994553 
	C291.001831,232.994553 290.995636,233.036148 291.027863,232.303452 
	C289.339355,231.544907 287.650818,230.786362 286.001190,229.999985 
	C286.001190,229.999985 285.981262,230.043503 286.033875,229.320038 
	C283.676849,228.221695 281.319855,227.123352 279.001556,225.999756 
	C279.001556,225.999756 278.982666,226.041977 279.047943,225.351868 
	C277.296692,224.218658 275.545471,223.085449 273.029602,222.004288 
	C271.970520,221.377991 270.911407,220.751694 269.607635,219.493835 
	C266.392517,218.005096 263.177429,216.516357 260.001434,215.000427 
	C260.001434,215.000427 259.980316,215.043198 260.055084,214.302628 
	C257.690918,213.209961 255.326767,212.117310 253.001328,210.999512 
	C253.001328,210.999512 252.983414,211.042053 253.029587,210.319046 
	C250.674805,209.217728 248.320007,208.116409 246.001984,206.994476 
	C246.001984,206.994476 245.995651,207.036163 246.027863,206.303452 
	C244.339294,205.544891 242.650726,204.786346 241.000992,203.999878 
	C241.000992,203.999878 240.981232,204.043503 241.033859,203.320068 
	C238.676849,202.221710 236.319839,201.123367 234.001404,199.999573 
	C234.001404,199.999573 233.983490,200.042191 234.029495,199.318970 
	C231.674179,198.220856 229.318878,197.122726 227.001617,196.000198 
	C227.001617,196.000198 226.979965,196.039993 227.113937,195.441605 
M245.867676,250.628342 
	C238.970261,246.636566 232.099014,242.598145 225.149658,238.698914 
	C223.993301,238.050110 222.119934,237.308929 221.217041,237.795761 
	C214.115860,241.624725 207.170197,245.742111 199.477219,250.173538 
	C210.318237,256.436432 220.534088,261.914612 230.271851,268.140503 
	C235.221848,271.305298 239.034027,271.895081 243.968307,268.235748 
	C248.741516,264.695831 254.232147,262.123352 260.007935,258.778320 
	C254.837585,255.797379 250.671234,253.395325 245.867676,250.628342 
z"/>
<path fill="#1C4041" opacity="1.000000" stroke="none" 
	d="
M340.062042,252.931366 
	C339.105225,251.773544 338.363861,250.267029 337.153687,249.519287 
	C332.344452,246.547729 327.406830,243.781189 322.481232,241.001633 
	C319.110596,239.099533 316.091125,236.343018 311.546936,237.679062 
	C310.297455,238.046417 308.417236,236.814072 307.006134,236.003128 
	C289.840576,226.138367 272.678223,216.266769 255.622009,206.215393 
	C254.157440,205.352295 253.500046,203.162384 252.381653,201.652542 
	C251.735825,200.780640 251.053909,199.807800 250.154877,199.271774 
	C244.153030,195.693344 238.148834,192.108078 232.000107,188.794647 
	C230.522797,187.998535 228.497879,188.218643 226.299789,187.925842 
	C227.789932,186.843857 229.667053,185.950714 228.366058,183.056534 
	C227.792236,181.779999 227.975388,180.121033 227.974152,178.635559 
	C227.953888,154.410339 227.962418,130.185104 227.954483,105.959862 
	C227.953537,103.084961 227.799759,100.162979 231.861069,99.366348 
	C233.736862,100.531700 235.103714,101.472527 236.535568,102.300957 
	C269.457184,121.348511 302.317963,140.503098 335.375092,159.312622 
	C341.401978,162.741943 343.670807,167.139511 343.617920,173.803909 
	C343.434052,196.962219 343.534576,220.122894 343.569824,243.282623 
	C343.572693,245.184006 343.899048,247.084900 344.075134,248.986023 
	C343.034088,250.294983 341.993042,251.603928 340.501282,253.209534 
	C340.054382,253.314590 340.058197,253.122971 340.062042,252.931366 
M240.559601,186.918182 
	C273.095642,205.740524 305.631683,224.562851 338.991180,243.861557 
	C338.991180,241.361816 338.991180,239.918076 338.991150,238.474335 
	C338.990509,216.826187 338.878021,195.176971 339.086456,173.530838 
	C339.126709,169.351273 337.826874,167.117416 334.147003,165.015381 
	C302.581177,146.984375 271.157166,128.705215 239.687836,110.505280 
	C237.608582,109.302757 235.505280,108.141808 232.878662,106.659973 
	C232.878662,129.846771 233.139999,152.158264 232.708420,174.456375 
	C232.589600,180.596100 234.091507,184.540909 240.559601,186.918182 
z"/>
<path fill="#DFA2B7" opacity="1.000000" stroke="none" 
	d="
M340.058044,252.950745 
	C340.058197,253.122971 340.054382,253.314590 340.336304,253.542740 
	C339.521271,255.236923 338.804321,257.549927 337.261810,258.453339 
	C316.045258,270.879517 294.701050,283.087463 273.425049,295.412628 
	C269.436890,297.722931 265.765289,297.704712 261.729401,295.362091 
	C227.682190,275.599335 193.604568,255.888504 159.459991,236.294617 
	C155.281219,233.896637 155.171967,231.170593 157.652664,227.477234 
	C156.259109,229.999115 157.797440,231.267929 159.929718,232.459122 
	C169.920853,238.040817 179.940369,243.575668 189.837891,249.319992 
	C203.452515,257.221619 216.903946,265.405243 230.543137,273.263519 
	C241.699097,279.691101 253.154251,285.605438 264.228912,292.165680 
	C270.256256,295.736053 274.115662,291.106842 278.167908,288.914307 
	C293.085114,280.843048 307.668274,272.151428 322.329071,263.610779 
	C327.466370,260.618073 332.465271,257.387695 338.178802,254.096481 
	C339.232391,253.595078 339.634583,253.263046 340.036774,252.931030 
	C340.036774,252.931030 340.054077,252.970123 340.058044,252.950745 
z"/>
<path fill="#D49CB0" opacity="1.000000" stroke="none" 
	d="
M344.148010,248.890564 
	C343.899048,247.084900 343.572693,245.184006 343.569824,243.282623 
	C343.534576,220.122894 343.434052,196.962219 343.617920,173.803909 
	C343.670807,167.139511 341.401978,162.741943 335.375092,159.312622 
	C302.317963,140.503098 269.457184,121.348511 236.535568,102.300957 
	C235.103714,101.472527 233.736862,100.531700 232.244156,99.320023 
	C233.843628,99.440079 235.738800,99.535187 237.204376,100.377655 
	C271.417694,120.044952 305.560486,139.835007 339.789246,159.475266 
	C344.246857,162.033020 346.020416,165.682938 346.017548,170.504150 
	C346.002686,195.613220 345.961578,220.722290 345.636475,246.473129 
	C345.048859,247.667130 344.754395,248.219345 344.459900,248.771561 
	C344.459900,248.771561 344.220856,248.795090 344.148010,248.890564 
z"/>
<path fill="#1C4041" opacity="1.000000" stroke="none" 
	d="
M344.804138,248.689667 
	C344.754395,248.219345 345.048859,247.667130 345.590454,246.923050 
	C345.607880,247.356735 345.378113,247.982254 344.804138,248.689667 
z"/>
<path fill="#82C6C6" opacity="1.000000" stroke="none" 
	d="
M211.221146,203.058075 
	C211.428436,202.877182 211.623489,202.683945 212.269623,202.384949 
	C214.309982,203.167114 216.021667,203.867249 217.437073,204.953445 
	C220.753433,207.498444 223.207733,206.482544 225.221222,204.026871 
	C222.990585,201.832245 221.006714,199.880386 219.022842,197.928528 
	C219.022842,197.928528 219.015991,198.016266 219.333710,198.059753 
	C220.405014,198.425949 221.200623,198.675674 221.906128,199.081863 
	C254.886780,218.069397 287.861938,237.066467 320.819824,256.093506 
	C321.648163,256.571716 322.275665,257.397766 322.996857,258.061584 
	C322.996857,258.061584 322.990967,257.980774 322.632507,258.011627 
	C321.188232,257.747162 319.927185,257.709259 319.048035,257.110504 
	C315.803314,254.900696 313.375214,255.820297 311.165344,258.650604 
	C312.414429,259.737000 313.527924,260.705505 314.641449,261.673981 
	C311.630798,261.353455 309.324738,259.875275 306.828674,258.867859 
	C304.658508,257.992004 302.273560,257.648407 299.714783,256.751282 
	C299.188354,255.653946 299.124878,254.717010 298.640991,254.122009 
	C295.817139,250.649796 292.839874,254.400253 290.005981,253.703873 
	C290.986877,252.716461 291.889099,252.053986 293.684296,250.735855 
	C290.606964,249.649323 288.281281,248.828201 285.833954,247.685730 
	C281.204193,243.094193 280.586548,243.086243 276.382629,248.658844 
	C279.271698,248.760406 282.160797,248.861969 284.989868,249.286682 
	C284.664490,250.428207 284.122986,251.944183 284.173645,251.964264 
	C286.076935,252.717697 288.034821,253.333282 290.276855,254.212845 
	C292.430511,260.119171 296.703522,256.828949 299.961945,257.303650 
	C299.133850,258.181854 298.385468,258.766113 297.418640,259.520874 
	C299.531219,260.776062 301.472076,261.687408 303.115173,262.977875 
	C304.570587,264.120941 305.694794,265.685638 306.965240,267.064209 
	C306.965240,267.064209 306.981628,266.979523 306.662842,266.971436 
	C302.746552,264.958984 298.994110,263.183746 295.595398,260.885406 
	C292.235596,258.613403 289.421692,258.426178 286.491791,261.756775 
	C288.369507,262.895416 290.254242,263.903107 291.990448,265.122284 
	C294.707520,267.030243 297.324158,269.081268 299.983337,271.071716 
	C299.983337,271.071716 299.985840,270.985016 299.653748,271.006042 
	C295.926453,269.234772 292.624176,267.221283 289.098572,265.739014 
	C287.201630,264.941467 284.915192,265.093079 282.818024,264.736816 
	C282.060516,264.608093 281.342438,264.246948 280.828094,263.733490 
	C281.613861,263.196930 282.177887,262.918732 283.283386,262.373474 
	C281.595459,261.479706 280.231903,260.757660 278.785217,259.763062 
	C278.793427,259.323914 278.884735,259.157318 279.296600,258.697754 
	C282.926117,260.217987 286.125885,261.163239 288.765594,257.466278 
	C286.213135,253.945999 283.129974,254.739548 279.726227,255.741241 
	C280.336365,254.835876 281.197632,254.213776 282.058899,253.591675 
	C281.906921,253.045227 281.754944,252.498764 281.602936,251.952316 
	C279.056763,251.655914 276.510559,251.359512 273.833130,250.682480 
	C272.648834,248.999817 271.658295,246.693420 270.528442,246.623001 
	C268.673309,246.507385 266.727783,247.842453 264.820374,248.565796 
	C264.978241,249.379974 265.136139,250.194168 265.294037,251.008347 
	C268.203430,251.008347 271.112823,251.008347 273.963013,251.338745 
	C273.714691,252.598816 273.294830,254.320969 273.370117,254.342926 
	C275.569153,254.983337 277.817596,255.454269 279.968811,256.304443 
	C279.587341,257.443695 279.295166,258.230835 278.609619,259.122864 
	C277.332428,259.062714 276.392731,259.036407 275.574738,258.707489 
	C272.671204,257.539825 269.809174,256.268921 267.028320,254.736877 
	C264.559814,249.158524 261.134003,248.800446 255.517654,253.223358 
	C255.044708,252.976868 254.571762,252.730377 254.106201,251.948120 
	C255.638794,250.430008 257.164032,249.447662 258.988129,248.272842 
	C248.918808,242.443741 239.239380,236.785400 229.485245,231.258835 
	C228.170654,230.513992 226.480209,230.432480 224.890900,229.695770 
	C221.858093,227.906845 218.898209,226.465973 215.955353,224.650818 
	C213.462341,219.812363 209.662292,221.085159 206.028702,221.712738 
	C206.933151,220.758804 207.747055,220.112381 208.560959,219.465958 
	C208.531616,218.998398 208.502274,218.530853 208.472931,218.063293 
	C205.635193,217.725525 202.797455,217.387772 199.855453,216.653992 
	C199.408188,215.291473 199.156509,214.278595 198.695953,213.371826 
	C198.253403,212.500519 197.594543,211.739105 197.030716,210.929398 
	C197.030716,210.929398 197.004410,211.012909 197.338409,211.010071 
	C201.362015,212.052200 204.912262,216.841309 208.792953,211.493362 
	C207.192688,209.965485 205.601669,208.446442 204.010666,206.927414 
	C204.010666,206.927414 204.020996,207.015427 204.254608,206.919647 
	C204.664017,206.734299 204.839798,206.644760 205.371078,206.663422 
	C208.043854,208.069992 210.495895,209.179123 212.646729,210.711151 
	C215.850876,212.993454 218.310913,212.250092 220.780014,209.486465 
	C217.462662,207.255524 214.341904,205.156799 211.221146,203.058075 
M226.852478,216.628555 
	C224.509277,219.967422 228.735565,220.190567 229.305756,220.147720 
	C231.233994,220.002869 233.094116,218.951355 234.980286,218.246414 
	C234.817810,217.505325 234.655334,216.764252 234.492874,216.023163 
	C231.988815,216.023163 229.484741,216.023163 226.638062,215.355209 
	C226.636566,214.376114 227.053284,212.935776 226.565247,212.493271 
	C223.541397,209.751480 220.939270,211.347672 217.148117,214.900070 
	C221.268631,215.335480 224.168198,215.641876 226.852478,216.628555 
M243.040115,234.378143 
	C243.883209,233.707489 244.726288,233.036819 246.900696,231.307114 
	C243.029251,230.752396 240.502472,230.390350 237.556351,229.351852 
	C236.494125,228.068695 235.507706,225.813904 234.352386,225.723801 
	C232.489487,225.578445 230.515274,226.859634 228.588089,227.538254 
	C228.735153,228.344238 228.882233,229.150223 229.029297,229.956207 
	C232.039139,229.956207 235.048981,229.956207 237.845993,230.621475 
	C237.707520,231.657440 237.270432,233.524460 237.477509,233.598831 
	C239.252075,234.236511 241.143234,234.549728 243.483414,235.569229 
	C246.032013,240.238251 247.975891,240.401443 252.584198,235.027039 
	C249.364059,235.027039 246.143906,235.027039 243.040115,234.378143 
M274.668671,236.382996 
	C276.941132,241.088409 279.157593,241.338028 283.819489,237.413528 
	C280.889099,235.093262 280.889099,235.093262 274.065125,235.363754 
	C274.953003,234.720901 275.840912,234.078064 276.728790,233.435226 
	C276.741852,232.936569 276.754944,232.437927 276.768036,231.939270 
	C274.170685,231.633072 271.573364,231.326874 268.595551,230.297348 
	C268.706665,225.284836 264.492645,226.974747 261.967590,225.280457 
	C258.128265,220.951584 256.970978,220.918152 253.032410,225.022934 
	C255.675766,228.864639 258.904297,227.034424 262.501251,226.590988 
	C261.412445,227.200516 260.323639,227.810043 259.234833,228.419571 
	C259.568573,229.200409 259.902313,229.981262 260.236053,230.762115 
	C263.174896,230.826614 266.113739,230.891129 268.885376,231.609863 
	C268.676666,232.499832 268.182007,234.123169 268.302063,234.169968 
	C270.153320,234.891800 272.084534,235.408676 274.668671,236.382996 
M291.874908,243.613617 
	C290.945984,244.385239 290.017029,245.156860 288.993378,246.007156 
	C294.122955,249.429504 294.122955,249.429504 299.149689,245.172150 
	C296.445190,244.359695 294.212128,243.688873 291.251709,242.766556 
	C288.532990,237.977371 286.857758,237.777161 281.822327,241.575531 
	C284.606293,246.577820 288.587402,242.769180 291.874908,243.613617 
M270.929535,239.418533 
	C268.291412,234.871231 266.633057,234.745316 260.543732,239.769302 
	C264.457001,240.261047 267.254028,240.612518 269.912567,241.638840 
	C270.641479,242.800598 271.320374,244.899719 272.109070,244.941803 
	C274.170563,245.051804 276.280029,244.262329 278.370392,243.831451 
	C278.346375,243.143585 278.322357,242.455719 278.298309,241.767838 
	C275.849823,241.182831 273.401306,240.597809 270.929535,239.418533 
M256.100677,231.369232 
	C255.069046,230.142517 254.060562,227.927994 253.000778,227.903168 
	C251.042099,227.857315 249.053375,229.094482 247.077148,229.797165 
	C247.141800,230.350220 247.206467,230.903259 247.271118,231.456314 
	C249.860809,231.958603 252.450516,232.460892 255.033554,233.603973 
	C256.803589,238.229721 259.299591,238.448975 264.869202,233.494385 
	C261.345825,232.908829 258.648132,232.460495 256.100677,231.369232 
M258.133392,242.396362 
	C258.721527,241.869247 259.309692,241.342133 259.917297,240.797577 
	C256.656586,237.059174 253.559006,237.559845 249.204590,241.687271 
	C252.825516,242.217316 255.423523,242.597610 258.410004,243.676605 
	C259.442841,244.965714 260.399963,247.235748 261.525635,247.322678 
	C263.389709,247.466614 265.362366,246.204575 267.289307,245.534912 
	C267.152466,244.749939 267.015625,243.964966 266.878784,243.179993 
	C263.898773,243.136139 260.918732,243.092300 258.133392,242.396362 
M240.195160,225.690048 
	C243.105850,230.179474 246.234451,229.500549 249.566284,224.677353 
	C246.689728,224.463196 243.813171,224.249039 241.179749,223.345062 
	C240.704681,222.230270 240.260773,220.179474 239.749130,220.162430 
	C237.513870,220.087967 235.258926,220.603775 233.011139,220.905319 
	C233.010757,221.598114 233.010376,222.290909 233.009995,222.983704 
	C235.354736,223.651321 237.699478,224.318924 240.195160,225.690048 
M216.044098,216.397659 
	C214.064453,212.005310 211.939636,211.802933 206.855804,215.507675 
	C209.468124,218.833420 212.661423,218.472977 216.527008,217.555862 
	C215.759033,218.278946 214.991043,219.002029 214.223068,219.725098 
	C214.226746,220.213470 214.230438,220.701843 214.234116,221.190216 
	C216.837494,221.435303 219.440857,221.680389 222.234650,222.711395 
	C223.262451,224.010574 224.230728,226.319077 225.331329,226.384003 
	C227.213852,226.495026 229.179260,225.200928 231.109848,224.496933 
	C230.977158,223.766129 230.844482,223.035324 230.711792,222.304535 
	C227.800797,222.198563 224.889786,222.092606 222.093079,221.335388 
	C222.236145,220.446533 222.619980,218.822449 222.486313,218.778687 
	C220.350174,218.079132 218.147934,217.581467 216.044098,216.397659 
M234.139008,209.747208 
	C232.974609,210.504379 231.810196,211.261536 230.575256,212.064575 
	C233.997528,215.583130 237.004974,215.692413 240.546677,211.719696 
	C238.433853,210.861771 236.604721,210.119034 234.139008,209.747208 
M230.980347,206.312500 
	C227.755020,203.945343 225.682617,205.690826 223.416840,208.249252 
	C224.877411,209.154922 226.003708,210.422409 227.111145,210.406143 
	C228.757370,210.381973 230.412308,209.500839 231.990372,208.815842 
	C232.128815,208.755753 231.726074,207.448883 230.980347,206.312500 
M309.807739,251.990433 
	C307.631744,252.485367 305.455750,252.980301 302.709808,253.604874 
	C306.743591,257.591980 309.951477,257.939453 313.269745,254.244797 
	C312.328613,253.581711 311.405518,252.931305 309.807739,251.990433 
M300.575653,252.874161 
	C302.373627,252.111023 304.171600,251.347885 306.257416,250.462585 
	C302.476807,246.696136 299.477570,246.369736 296.419800,250.389236 
	C297.712219,251.209900 298.795502,251.897751 300.575653,252.874161 
M243.995667,213.942337 
	C241.953461,214.492432 239.911240,215.042511 237.425079,215.712189 
	C241.284027,219.912415 244.392136,219.805542 247.678009,216.208282 
	C246.593353,215.499435 245.640579,214.876770 243.995667,213.942337 
M248.276703,218.362549 
	C247.276840,219.067764 246.276962,219.772995 245.192902,220.537598 
	C250.391068,224.295456 250.586411,224.286591 255.123093,219.802612 
	C252.844070,219.159225 250.904007,218.611542 248.276703,218.362549 
z"/>
<path fill="#183E3E" opacity="1.000000" stroke="none" 
	d="
M246.186279,250.810791 
	C250.671234,253.395325 254.837585,255.797379 260.007935,258.778320 
	C254.232147,262.123352 248.741516,264.695831 243.968307,268.235748 
	C239.034027,271.895081 235.221848,271.305298 230.271851,268.140503 
	C220.534088,261.914612 210.318237,256.436432 199.477219,250.173538 
	C207.170197,245.742111 214.115860,241.624725 221.217041,237.795761 
	C222.119934,237.308929 223.993301,238.050110 225.149658,238.698914 
	C232.099014,242.598145 238.970261,246.636566 246.186279,250.810791 
z"/>
<path fill="#1A4343" opacity="1.000000" stroke="none" 
	d="
M323.349243,258.013000 
	C322.275665,257.397766 321.648163,256.571716 320.819824,256.093506 
	C287.861938,237.066467 254.886780,218.069397 221.906128,199.081863 
	C221.200623,198.675674 220.405014,198.425949 219.289734,198.058395 
	C220.699493,196.982330 222.470963,195.951096 224.741577,195.172882 
	C225.820465,195.630600 226.400208,195.835297 226.979965,196.039993 
	C226.979965,196.039993 227.001617,196.000198 227.113403,196.327057 
	C229.477951,197.783340 231.730728,198.912766 233.983490,200.042191 
	C233.983490,200.042191 234.001404,199.999573 234.096771,200.335114 
	C236.455185,201.794937 238.718216,202.919220 240.981232,204.043503 
	C240.981232,204.043503 241.000992,203.999878 241.079224,204.338898 
	C242.770187,205.464005 244.382919,206.250076 245.995651,207.036163 
	C245.995651,207.036163 246.001984,206.994476 246.128082,207.312164 
	C248.497269,208.767258 250.740341,209.904648 252.983414,211.042053 
	C252.983414,211.042053 253.001328,210.999512 253.096558,211.334900 
	C255.454636,212.794586 257.717468,213.918884 259.980316,215.043182 
	C259.980316,215.043198 260.001434,215.000427 260.091431,215.341644 
	C263.405090,217.163712 266.628693,218.644562 269.852325,220.125412 
	C270.911407,220.751694 271.970520,221.377991 273.394562,222.267136 
	C275.500580,223.700653 277.241608,224.871307 278.982666,226.041977 
	C278.982666,226.041977 279.001556,225.999756 279.096863,226.335175 
	C281.455200,227.794907 283.718231,228.919205 285.981262,230.043488 
	C285.981262,230.043503 286.001190,229.999985 286.084717,230.336670 
	C287.777405,231.460953 289.386505,232.248550 290.995636,233.036148 
	C290.995636,233.036148 291.001831,232.994553 291.128174,233.312347 
	C293.500824,234.765762 295.747131,235.901398 297.993439,237.037048 
	C297.993439,237.037048 298.002106,236.995483 298.110107,237.322937 
	C300.472504,238.781433 302.726868,239.912460 304.981262,241.043488 
	C304.981262,241.043472 305.001312,241.000046 305.089417,241.339905 
	C309.113220,243.800232 313.048889,245.920715 316.984558,248.041183 
	C316.984558,248.041183 317.001221,247.998917 317.129089,248.336380 
	C318.788727,249.157700 320.320496,249.641556 321.852264,250.125427 
	C323.942596,251.591202 326.032928,253.056992 328.733307,254.950546 
	C326.674591,256.183685 325.188110,257.074066 323.349243,258.013000 
z"/>
<path fill="#1A4343" opacity="1.000000" stroke="none" 
	d="
M224.963791,230.043823 
	C226.480209,230.432480 228.170654,230.513992 229.485245,231.258835 
	C239.239380,236.785400 248.918808,242.443741 258.988129,248.272842 
	C257.164032,249.447662 255.638794,250.430008 253.946976,251.731567 
	C243.041519,245.966415 232.302658,239.882019 221.645325,233.443634 
	C222.500275,232.386139 223.273682,231.682602 224.027527,230.994537 
	C224.007965,231.010010 223.969818,231.042114 224.327026,231.042175 
	C224.799835,230.679825 224.915451,230.317413 225.014160,229.977142 
	C224.997253,229.999283 224.963791,230.043823 224.963791,230.043823 
z"/>
<path fill="#1C4646" opacity="1.000000" stroke="none" 
	d="
M299.983521,257.069611 
	C302.273560,257.648407 304.658508,257.992004 306.828674,258.867859 
	C309.324738,259.875275 311.630798,261.353455 314.641449,261.673981 
	C313.527924,260.705505 312.414429,259.737000 311.165344,258.650604 
	C313.375214,255.820297 315.803314,254.900696 319.048035,257.110504 
	C319.927185,257.709259 321.188232,257.747162 322.672729,258.006927 
	C317.945709,260.983490 312.819977,263.995605 307.329742,267.035950 
	C305.694794,265.685638 304.570587,264.120941 303.115173,262.977875 
	C301.472076,261.687408 299.531219,260.776062 297.418640,259.520874 
	C298.385468,258.766113 299.133850,258.181854 299.942261,257.313354 
	C300.002319,257.029114 299.983521,257.069611 299.983521,257.069611 
z"/>
<path fill="#1C4646" opacity="1.000000" stroke="none" 
	d="
M280.606384,263.991882 
	C281.342438,264.246948 282.060516,264.608093 282.818024,264.736816 
	C284.915192,265.093079 287.201630,264.941467 289.098572,265.739014 
	C292.624176,267.221283 295.926453,269.234772 299.697144,271.005432 
	C296.617310,275.018921 292.900574,275.948486 288.382141,272.433594 
	C285.329651,270.059082 281.953217,268.100952 278.532776,265.632751 
	C279.098022,264.869904 279.852203,264.430878 280.606384,263.991882 
z"/>
<path fill="#1A4343" opacity="1.000000" stroke="none" 
	d="
M300.343872,271.081146 
	C297.324158,269.081268 294.707520,267.030243 291.990448,265.122284 
	C290.254242,263.903107 288.369507,262.895416 286.491791,261.756775 
	C289.421692,258.426178 292.235596,258.613403 295.595398,260.885406 
	C298.994110,263.183746 302.746552,264.958984 306.705566,266.977173 
	C304.946198,268.357544 302.825287,269.724060 300.343872,271.081146 
z"/>
<path fill="#1A4343" opacity="1.000000" stroke="none" 
	d="
M210.847900,203.008636 
	C214.341904,205.156799 217.462662,207.255524 220.780014,209.486465 
	C218.310913,212.250092 215.850876,212.993454 212.646729,210.711151 
	C210.495895,209.179123 208.043854,208.069992 205.374481,206.546890 
	C205.022369,206.322144 205.021225,206.088638 205.021225,206.088638 
	C206.839035,205.045486 208.656860,204.002350 210.847900,203.008636 
z"/>
<path fill="#1C4646" opacity="1.000000" stroke="none" 
	d="
M218.672791,197.981201 
	C221.006714,199.880386 222.990585,201.832245 225.221222,204.026871 
	C223.207733,206.482544 220.753433,207.498444 217.437073,204.953445 
	C216.021667,203.867249 214.309982,203.167114 212.403351,202.228195 
	C214.156754,200.787857 216.239761,199.410858 218.672791,197.981201 
z"/>
<path fill="#1C4646" opacity="1.000000" stroke="none" 
	d="
M266.931427,255.037140 
	C269.809174,256.268921 272.671204,257.539825 275.574738,258.707489 
	C276.392731,259.036407 277.332428,259.062714 278.606171,259.113800 
	C278.996033,258.999786 278.976044,258.990692 278.976044,258.990692 
	C278.884735,259.157318 278.793427,259.323914 278.449127,259.771912 
	C276.420502,260.587189 274.644897,261.121002 272.869263,261.654846 
	C270.122375,260.672394 267.375488,259.689972 264.613708,258.251129 
	C265.078888,257.187714 265.558899,256.580719 266.020935,255.989410 
	C266.002899,256.005127 265.967468,256.037201 266.335449,256.056763 
	C266.812592,255.701202 266.921722,255.326126 267.006897,254.973587 
	C266.982910,254.996140 266.931427,255.037140 266.931427,255.037140 
z"/>
<path fill="#1A4343" opacity="1.000000" stroke="none" 
	d="
M215.938309,225.025101 
	C218.898209,226.465973 221.858093,227.906845 224.890900,229.695770 
	C224.963791,230.043823 224.997253,229.999283 224.660492,229.988586 
	C224.205780,230.332642 224.087799,230.687378 223.969818,231.042114 
	C223.969818,231.042114 224.007965,231.010010 223.671600,230.788605 
	C222.116058,231.206223 220.896866,231.845215 219.677673,232.484222 
	C217.229324,231.248932 214.780975,230.013657 212.444183,228.364227 
	C212.723312,227.622330 212.890884,227.294601 213.024933,226.978653 
	C212.991440,226.990433 212.954498,227.051102 213.332932,227.036972 
	C214.487305,226.334885 215.263245,225.646927 216.008118,224.966599 
	C215.977051,224.974213 215.938309,225.025101 215.938309,225.025101 
z"/>
<path fill="#1C4646" opacity="1.000000" stroke="none" 
	d="
M255.761688,253.466187 
	C261.134003,248.800446 264.559814,249.158524 267.028320,254.736877 
	C266.931427,255.037140 266.982910,254.996140 266.679443,255.001968 
	C266.239777,255.350937 266.103638,255.694077 265.967468,256.037201 
	C265.967468,256.037201 266.002899,256.005127 265.669434,255.852417 
	C264.457794,256.190735 263.579620,256.681763 262.701477,257.172821 
	C260.469574,256.018219 258.237640,254.863617 255.761688,253.466187 
z"/>
<path fill="#1C4646" opacity="1.000000" stroke="none" 
	d="
M196.670654,211.027374 
	C197.594543,211.739105 198.253403,212.500519 198.695953,213.371826 
	C199.156509,214.278595 199.408188,215.291473 199.875946,216.636673 
	C200.000687,217.015381 200.044388,216.984238 199.705933,216.727631 
	C198.127396,217.150681 196.887314,217.830353 195.647247,218.510040 
	C193.659973,217.460480 191.672699,216.410934 188.596146,214.786087 
	C191.819565,213.256485 194.065079,212.190918 196.670654,211.027374 
z"/>
<path fill="#1C4646" opacity="1.000000" stroke="none" 
	d="
M203.651123,206.852982 
	C205.601669,208.446442 207.192688,209.965485 208.792953,211.493362 
	C204.912262,216.841309 201.362015,212.052200 197.296310,210.998077 
	C199.044006,209.585480 201.167801,208.182022 203.651123,206.852982 
z"/>
<path fill="#1C4646" opacity="1.000000" stroke="none" 
	d="
M199.980194,217.032684 
	C202.797455,217.387772 205.635193,217.725525 208.472931,218.063293 
	C208.502274,218.530853 208.531616,218.998398 208.560959,219.465958 
	C207.747055,220.112381 206.933151,220.758804 206.051514,221.699219 
	C205.983780,221.993195 206.024582,221.959366 205.684570,221.941376 
	C204.789764,222.295609 204.234970,222.667847 203.680176,223.040100 
	C201.594742,221.969177 199.509308,220.898239 197.524658,219.446503 
	C198.431763,218.371887 199.238068,217.678055 200.044388,216.984222 
	C200.044388,216.984238 200.000687,217.015381 199.980194,217.032684 
z"/>
<path fill="#1C4646" opacity="1.000000" stroke="none" 
	d="
M205.960968,222.006729 
	C209.662292,221.085159 213.462341,219.812363 215.955353,224.650818 
	C215.938309,225.025101 215.977051,224.974213 215.664963,224.970703 
	C214.553421,225.661835 213.753952,226.356461 212.954498,227.051102 
	C212.954498,227.051102 212.991440,226.990433 212.626175,226.906723 
	C211.756989,227.020782 211.253067,227.218552 210.749146,227.416336 
	C208.997299,226.453644 207.245453,225.490952 205.429031,223.982056 
	C205.584503,222.943680 205.804535,222.451523 206.024582,221.959366 
	C206.024582,221.959366 205.983780,221.993195 205.960968,222.006729 
z"/>
<path fill="#1A4343" opacity="1.000000" stroke="none" 
	d="
M272.573730,261.898071 
	C274.644897,261.121002 276.420502,260.587189 278.532227,260.044495 
	C280.231903,260.757660 281.595459,261.479706 283.283386,262.373474 
	C282.177887,262.918732 281.613861,263.196930 280.828094,263.733490 
	C279.852203,264.430878 279.098022,264.869904 278.190491,265.532776 
	C276.117523,264.551514 274.197876,263.346405 272.573730,261.898071 
z"/>
<path fill="#82C6C6" opacity="1.000000" stroke="none" 
	d="
M317.009338,247.685745 
	C313.048889,245.920715 309.113220,243.800232 305.069885,241.353638 
	C308.986206,243.128464 313.010162,245.229385 317.009338,247.685745 
z"/>
<path fill="#82C6C6" opacity="1.000000" stroke="none" 
	d="
M269.729980,219.809631 
	C266.628693,218.644562 263.405090,217.163712 260.071899,215.355240 
	C263.177429,216.516357 266.392517,218.005096 269.729980,219.809631 
z"/>
<path fill="#82C6C6" opacity="1.000000" stroke="none" 
	d="
M260.017700,214.672913 
	C257.717468,213.918884 255.454636,212.794586 253.077209,211.347473 
	C255.326767,212.117310 257.690918,213.209961 260.017700,214.672913 
z"/>
<path fill="#82C6C6" opacity="1.000000" stroke="none" 
	d="
M298.013000,236.675446 
	C295.747131,235.901398 293.500824,234.765762 291.109863,233.322617 
	C293.320984,234.114685 295.676788,235.214264 298.013000,236.675446 
z"/>
<path fill="#82C6C6" opacity="1.000000" stroke="none" 
	d="
M253.006500,210.680542 
	C250.740341,209.904648 248.497269,208.767258 246.109695,207.322479 
	C248.320007,208.116409 250.674805,209.217728 253.006500,210.680542 
z"/>
<path fill="#82C6C6" opacity="1.000000" stroke="none" 
	d="
M305.007538,240.681946 
	C302.726868,239.912460 300.472504,238.781433 298.091431,237.333054 
	C300.321136,238.117264 302.677460,239.218826 305.007538,240.681946 
z"/>
<path fill="#82C6C6" opacity="1.000000" stroke="none" 
	d="
M241.007538,203.681793 
	C238.718216,202.919220 236.455185,201.794937 234.077484,200.347839 
	C236.319839,201.123367 238.676849,202.221710 241.007538,203.681793 
z"/>
<path fill="#82C6C6" opacity="1.000000" stroke="none" 
	d="
M286.007568,229.681763 
	C283.718231,228.919205 281.455200,227.794907 279.077515,226.347809 
	C281.319855,227.123352 283.676849,228.221695 286.007568,229.681763 
z"/>
<path fill="#82C6C6" opacity="1.000000" stroke="none" 
	d="
M234.006500,199.680573 
	C231.730728,198.912766 229.477951,197.783340 227.094376,196.339264 
	C229.318878,197.122726 231.674179,198.220856 234.006500,199.680573 
z"/>
<path fill="#82C6C6" opacity="1.000000" stroke="none" 
	d="
M279.015320,225.696930 
	C277.241608,224.871307 275.500580,223.700653 273.776855,222.241119 
	C275.545471,223.085449 277.296692,224.218658 279.015320,225.696930 
z"/>
<path fill="#82C6C6" opacity="1.000000" stroke="none" 
	d="
M246.011749,206.669800 
	C244.382919,206.250076 242.770187,205.464005 241.059814,204.352875 
	C242.650726,204.786346 244.339294,205.544891 246.011749,206.669800 
z"/>
<path fill="#82C6C6" opacity="1.000000" stroke="none" 
	d="
M291.011749,232.669800 
	C289.386505,232.248550 287.777405,231.460953 286.065308,230.350586 
	C287.650818,230.786362 289.339355,231.544907 291.011749,232.669800 
z"/>
<path fill="#82C6C6" opacity="1.000000" stroke="none" 
	d="
M321.713776,249.802277 
	C320.320496,249.641556 318.788727,249.157700 317.110596,248.349564 
	C318.501221,248.509903 320.038269,248.994522 321.713776,249.802277 
z"/>
<path fill="#82C6C6" opacity="1.000000" stroke="none" 
	d="
M219.903671,232.649139 
	C220.896866,231.845215 222.116058,231.206223 223.691162,230.773148 
	C223.273682,231.682602 222.500275,232.386139 221.418503,233.218735 
	C220.783325,233.169891 220.456497,232.991974 219.903671,232.649139 
z"/>
<path fill="#82C6C6" opacity="1.000000" stroke="none" 
	d="
M199.705933,216.727615 
	C199.238068,217.678055 198.431763,218.371887 197.316208,219.208969 
	C196.696350,219.179077 196.385742,219.005936 195.861191,218.671402 
	C196.887314,217.830353 198.127396,217.150681 199.705933,216.727615 
z"/>
<path fill="#82C6C6" opacity="1.000000" stroke="none" 
	d="
M262.910614,257.390991 
	C263.579620,256.681763 264.457794,256.190735 265.687439,255.836700 
	C265.558899,256.580719 265.078888,257.187714 264.373535,258.016357 
	C263.805420,258.028351 263.462585,257.818756 262.910614,257.390991 
z"/>
<path fill="#82C6C6" opacity="1.000000" stroke="none" 
	d="
M227.046951,195.740799 
	C226.400208,195.835297 225.820465,195.630600 225.099152,195.134888 
	C225.676376,195.043106 226.395157,195.242355 227.046951,195.740799 
z"/>
<path fill="#82C6C6" opacity="1.000000" stroke="none" 
	d="
M205.684570,221.941376 
	C205.804535,222.451523 205.584503,222.943680 205.208710,223.737900 
	C204.721954,223.851791 204.390976,223.663605 203.870087,223.257751 
	C204.234970,222.667847 204.789764,222.295609 205.684570,221.941376 
z"/>
<path fill="#82C6C6" opacity="1.000000" stroke="none" 
	d="
M210.941559,227.575378 
	C211.253067,227.218552 211.756989,227.020782 212.659668,226.894943 
	C212.890884,227.294601 212.723312,227.622330 212.290756,228.062515 
	C211.720764,228.043808 211.423492,227.896957 210.941559,227.575378 
z"/>
<path fill="#1C4041" opacity="1.000000" stroke="none" 
	d="
M339.731140,252.945251 
	C339.634583,253.263046 339.232391,253.595078 338.484711,253.933517 
	C338.567963,253.613113 338.996735,253.286301 339.731140,252.945251 
z"/>
<path fill="#1C4646" opacity="1.000000" stroke="none" 
	d="
M204.713074,206.094696 
	C205.021225,206.088638 205.022369,206.322144 205.018982,206.438690 
	C204.839798,206.644760 204.664017,206.734299 204.210968,206.927155 
	C204.090775,206.720566 204.247833,206.410660 204.713074,206.094696 
z"/>
<path fill="#92D9DB" opacity="1.000000" stroke="none" 
	d="
M240.243408,186.722656 
	C234.091507,184.540909 232.589600,180.596100 232.708420,174.456375 
	C233.139999,152.158264 232.878662,129.846771 232.878662,106.659973 
	C235.505280,108.141808 237.608582,109.302757 239.687836,110.505280 
	C271.157166,128.705215 302.581177,146.984375 334.147003,165.015381 
	C337.826874,167.117416 339.126709,169.351273 339.086456,173.530838 
	C338.878021,195.176971 338.990509,216.826187 338.991150,238.474335 
	C338.991180,239.918076 338.991180,241.361816 338.991180,243.861557 
	C305.631683,224.562851 273.095642,205.740524 240.243408,186.722656 
M309.400146,195.934113 
	C309.667267,195.846222 309.934357,195.758331 310.760040,196.134369 
	C312.234070,198.357544 313.648010,200.943085 316.936646,199.851730 
	C321.896057,198.205902 326.772003,196.306747 331.656799,194.445389 
	C331.830963,194.379044 331.722107,193.569946 331.756317,192.881943 
	C329.956329,193.188980 328.325714,193.467133 325.755402,193.905579 
	C327.311554,191.758408 328.282654,190.418488 329.253754,189.078568 
	C329.086029,188.725189 328.918335,188.371811 328.750610,188.018433 
	C326.253967,188.745621 323.757324,189.472824 320.841248,190.322174 
	C322.152008,187.877151 323.094513,186.119019 324.758881,183.014359 
	C320.382660,184.690659 317.545258,185.777512 314.794922,186.831009 
	C315.012543,183.837067 315.983124,179.957077 315.203247,179.565765 
	C311.907379,177.912048 308.708801,174.004059 304.179321,177.708008 
	C302.590698,179.007111 300.037476,179.126724 297.924744,179.784943 
	C297.764526,179.365082 297.604340,178.945206 297.444153,178.525345 
	C298.847839,176.816177 300.251526,175.107010 302.191345,172.744995 
	C297.899872,171.598206 294.606781,170.746780 290.878540,172.921173 
	C289.625977,173.651733 287.344696,172.618500 285.533600,172.391418 
	C286.431335,170.834854 286.972443,168.628174 288.318878,167.889496 
	C289.931091,167.004990 292.231110,167.374191 293.482605,167.265564 
	C293.482605,164.918228 293.482605,162.748062 293.482605,160.736435 
	C286.172974,164.175919 283.855011,163.241928 283.228302,156.073730 
	C281.822144,156.562698 280.094391,157.803024 279.215881,157.359879 
	C275.093079,155.280182 274.247040,157.690689 272.820740,160.802399 
	C271.633118,163.393372 268.997925,164.027191 266.266602,162.119293 
	C267.823547,159.915482 269.156769,158.028290 270.490021,156.141083 
	C270.102478,155.956543 269.714905,155.772018 269.327362,155.587479 
	C265.712402,157.015808 262.097412,158.444153 258.482452,159.872482 
	C258.139893,159.458328 257.797333,159.044159 257.454773,158.630005 
	C262.675110,155.172638 262.627716,151.383865 258.632660,147.118912 
	C257.099945,148.781647 255.630356,150.375900 254.114426,151.876526 
	C254.114426,151.876526 253.968964,151.982086 253.351669,151.379669 
	C254.152802,149.535431 254.953949,147.691208 256.265594,145.587494 
	C256.475159,145.066528 256.684753,144.545563 257.074341,143.227509 
	C255.967331,142.145081 254.832123,140.131927 253.758881,140.164429 
	C251.125458,140.244171 248.520599,141.266754 246.002457,141.992218 
	C246.002457,141.992218 245.906708,141.901382 245.160782,141.987915 
	C242.589935,143.494980 239.633011,144.603928 237.554855,146.619095 
	C235.399643,148.709000 235.434921,151.074921 239.511414,151.137665 
	C239.511414,151.137665 239.565994,151.118408 239.951172,151.854889 
	C241.933960,152.919388 243.916763,153.983887 246.287231,155.359009 
	C246.882294,155.251373 247.477356,155.143738 248.716415,155.010559 
	C251.401016,154.400757 254.085632,153.790955 256.971680,153.135406 
	C255.915146,155.871429 255.019928,158.189728 253.752029,161.473129 
	C257.697052,161.122620 260.553497,160.868851 262.837036,160.665955 
	C262.930298,161.999100 263.030182,163.427551 262.673096,165.406662 
	C260.711914,170.371933 253.917435,174.313095 259.227783,180.957947 
	C264.425568,177.860855 264.425568,177.860855 260.107513,175.050720 
	C261.219543,173.327911 262.333466,171.602142 263.647156,169.566925 
	C264.292114,170.893890 264.783997,171.905869 265.364044,173.099335 
	C267.542114,171.513474 269.371277,170.181656 271.676239,169.139069 
	C272.125000,169.726700 272.573761,170.314331 273.408813,171.339935 
	C274.254944,171.234818 275.101105,171.129700 276.745880,170.985977 
	C277.810913,170.941360 278.875916,170.896744 280.301239,171.335312 
	C280.618622,171.578384 280.936035,171.821457 281.096130,172.555405 
	C281.057220,172.722763 281.018280,172.890121 280.652374,173.449127 
	C281.161743,173.924103 281.671143,174.399063 282.597809,175.311981 
	C282.723236,175.895233 282.848633,176.478485 282.455444,177.509766 
	C281.317139,177.523773 280.178864,177.537766 278.511505,177.270554 
	C275.792511,175.836731 273.747284,172.665756 269.335632,174.011093 
	C268.825775,174.677567 268.315948,175.344025 267.196777,176.233932 
	C266.823914,177.183167 266.451050,178.132401 265.982117,179.753159 
	C266.349579,180.202469 266.717072,180.651794 267.203003,181.289062 
	C267.203003,181.289062 267.380219,181.424026 267.090271,182.258209 
	C268.315460,182.742142 269.540649,183.226059 270.717651,183.777237 
	C270.717651,183.777237 270.631744,183.917206 271.279663,183.461075 
	C271.543091,183.441559 271.806488,183.422058 272.125244,184.080704 
	C272.779053,185.044342 273.432831,186.007996 274.031982,187.004730 
	C274.031982,187.004730 274.018341,186.942413 274.277252,187.559296 
	C274.902832,187.736374 275.528412,187.913467 276.982758,188.129593 
	C278.057739,187.865921 279.132690,187.602249 280.262024,188.256226 
	C281.609070,189.602402 282.956116,190.948578 284.693481,192.275421 
	C285.761292,192.168274 286.829071,192.061111 287.990417,192.408127 
	C288.571320,192.612274 289.152222,192.816437 290.294861,193.444183 
	C291.280273,193.969284 292.265717,194.494385 293.385895,195.096451 
	C293.385895,195.096451 293.533813,195.049622 293.792572,195.669037 
	C294.885925,194.727097 295.979279,193.785141 297.582916,192.132172 
	C298.258698,190.473709 298.934509,188.815247 299.942810,186.340805 
	C298.270721,187.183228 297.461182,187.591095 295.920929,188.162323 
	C295.703918,188.558228 295.486877,188.954147 294.161255,189.152618 
	C293.803375,189.039536 293.445465,188.926437 293.715210,188.101303 
	C293.101532,187.756866 292.487823,187.412430 291.480347,187.165558 
	C291.480347,187.165558 291.138489,187.384064 291.145142,186.514954 
	C291.024384,185.956726 290.903625,185.398514 290.699005,184.492157 
	C290.571259,184.279602 290.398102,184.114609 289.922241,183.368439 
	C289.265717,183.561310 288.609192,183.754181 287.530975,183.902115 
	C287.530975,183.902115 287.109467,183.855316 286.806793,183.512100 
	C286.587128,183.282425 286.319153,183.151978 285.423645,183.035782 
	C285.228821,183.047455 285.034027,183.059113 284.043549,183.090530 
	C283.562866,183.310242 283.082153,183.529953 282.878357,182.795654 
	C283.020508,182.146790 283.162628,181.497925 283.883820,180.607178 
	C284.888702,179.162933 285.893585,177.718674 286.717682,176.534225 
	C293.287048,176.376389 296.978027,185.777252 304.676147,181.284698 
	C303.993439,182.333847 303.310730,183.382980 302.628052,184.432114 
	C302.893433,184.805054 303.158813,185.177994 303.424194,185.550934 
	C306.268799,183.956604 309.113434,182.362289 312.195465,180.634903 
	C311.341766,183.835495 310.714478,186.187363 309.346588,188.776459 
	C308.773773,190.507767 308.200989,192.239059 307.268463,194.347504 
	C307.256958,194.973373 307.245453,195.599243 307.233978,196.225113 
	C307.675354,196.145584 308.116760,196.066040 309.400146,195.934113 
z"/>
<path fill="#1C4646" opacity="1.000000" stroke="none" 
	d="
M261.979950,226.028229 
	C264.492645,226.974747 268.706665,225.284836 268.804871,230.642700 
	C269.014221,230.988052 269.052582,230.955643 269.052582,230.955643 
	C266.113739,230.891129 263.174896,230.826614 260.236053,230.762115 
	C259.902313,229.981262 259.568573,229.200409 259.234833,228.419571 
	C260.323639,227.810043 261.412445,227.200516 262.258942,226.290314 
	C262.016632,225.989624 261.979950,226.028229 261.979950,226.028229 
z"/>
<path fill="#1C4646" opacity="1.000000" stroke="none" 
	d="
M215.960754,217.037781 
	C218.147934,217.581467 220.350174,218.079132 222.486313,218.778687 
	C222.619980,218.822449 222.236145,220.446533 222.055206,221.649139 
	C222.017334,221.962891 222.044235,221.925491 222.044235,221.925476 
	C219.440857,221.680389 216.837494,221.435303 214.234116,221.190216 
	C214.230438,220.701843 214.226746,220.213470 214.223068,219.725098 
	C214.991043,219.002029 215.759033,218.278946 216.262299,217.279572 
	C215.997574,217.003281 215.960754,217.037781 215.960754,217.037781 
z"/>
<path fill="#1C4646" opacity="1.000000" stroke="none" 
	d="
M240.936615,224.034882 
	C243.813171,224.249039 246.689728,224.463196 249.566284,224.677353 
	C246.234451,229.500549 243.105850,230.179474 240.100677,225.349014 
	C240.006195,225.007980 239.972824,225.036148 240.337341,225.044769 
	C240.810562,224.687958 240.919281,224.322540 241.006042,223.977600 
	C240.984070,223.998062 240.936615,224.034897 240.936615,224.034882 
z"/>
<path fill="#1C4646" opacity="1.000000" stroke="none" 
	d="
M280.058105,255.952301 
	C277.817596,255.454269 275.569153,254.983337 273.370117,254.342926 
	C273.294830,254.320969 273.714691,252.598816 273.945618,251.348816 
	C273.987427,251.028503 273.964355,251.063110 273.964355,251.063110 
	C276.510559,251.359512 279.056763,251.655914 281.602936,251.952316 
	C281.754944,252.498764 281.906921,253.045227 282.058899,253.591675 
	C281.197632,254.213776 280.336365,254.835876 279.745972,255.722839 
	C280.016815,255.987732 280.058105,255.952286 280.058105,255.952301 
z"/>
<path fill="#1C4646" opacity="1.000000" stroke="none" 
	d="
M257.938690,243.048447 
	C260.918732,243.092300 263.898773,243.136139 266.878784,243.179993 
	C267.015625,243.964966 267.152466,244.749939 267.289307,245.534912 
	C265.362366,246.204575 263.389709,247.466614 261.525635,247.322678 
	C260.399963,247.235748 259.442841,244.965714 258.195374,243.345261 
	C257.980713,243.013916 257.938690,243.048447 257.938690,243.048447 
z"/>
<path fill="#1C4646" opacity="1.000000" stroke="none" 
	d="
M285.049896,248.963531 
	C282.160797,248.861969 279.271698,248.760406 276.382629,248.658844 
	C280.586548,243.086243 281.204193,243.094193 285.853668,247.676483 
	C285.995056,247.988541 286.029388,247.961166 285.676880,247.953491 
	C285.206451,248.310120 285.088531,248.674408 284.989990,249.019440 
	C285.009338,249.000168 285.049896,248.963531 285.049896,248.963531 
z"/>
<path fill="#1C4646" opacity="1.000000" stroke="none" 
	d="
M240.025208,224.997253 
	C237.699478,224.318924 235.354736,223.651321 233.009995,222.983704 
	C233.010376,222.290909 233.010757,221.598114 233.011139,220.905319 
	C235.258926,220.603775 237.513870,220.087967 239.749130,220.162430 
	C240.260773,220.179474 240.704681,222.230270 241.058182,223.689972 
	C240.936615,224.034897 240.984070,223.998062 240.659103,223.992569 
	C240.213699,224.336761 240.093262,224.686462 239.972824,225.036148 
	C239.972824,225.036148 240.006195,225.007980 240.025208,224.997253 
z"/>
<path fill="#1C4646" opacity="1.000000" stroke="none" 
	d="
M238.058823,229.956207 
	C235.048981,229.956207 232.039139,229.956207 229.029297,229.956207 
	C228.882233,229.150223 228.735153,228.344238 228.588089,227.538254 
	C230.515274,226.859634 232.489487,225.578445 234.352386,225.723801 
	C235.507706,225.813904 236.494125,228.068695 237.786163,229.671326 
	C238.015961,229.990784 238.058823,229.956207 238.058823,229.956207 
z"/>
<path fill="#1C4646" opacity="1.000000" stroke="none" 
	d="
M255.040222,232.963181 
	C252.450516,232.460892 249.860809,231.958603 247.271118,231.456314 
	C247.206467,230.903259 247.141800,230.350220 247.077148,229.797165 
	C249.053375,229.094482 251.042099,227.857315 253.000778,227.903168 
	C254.060562,227.927994 255.069046,230.142517 256.045959,231.679504 
	C255.991241,231.989761 256.027100,231.960068 255.677399,231.963959 
	C255.209396,232.323944 255.091110,232.680038 254.989532,233.017731 
	C255.006226,232.999359 255.040222,232.963181 255.040222,232.963181 
z"/>
<path fill="#1C4646" opacity="1.000000" stroke="none" 
	d="
M289.985321,253.967438 
	C288.034821,253.333282 286.076935,252.717697 284.173645,251.964264 
	C284.122986,251.944183 284.664490,250.428207 284.989868,249.286682 
	C285.049896,248.963531 285.009338,249.000168 285.342529,249.027542 
	C285.793610,248.690338 285.911499,248.325745 286.029358,247.961151 
	C286.029388,247.961166 285.995056,247.988541 285.975342,247.997803 
	C288.281281,248.828201 290.606964,249.649323 293.684296,250.735855 
	C291.889099,252.053986 290.986877,252.716461 290.025269,253.692581 
	C289.965912,254.006226 289.985321,253.967438 289.985321,253.967438 
z"/>
<path fill="#1C4646" opacity="1.000000" stroke="none" 
	d="
M270.051056,240.963989 
	C267.254028,240.612518 264.457001,240.261047 260.543732,239.769302 
	C266.633057,234.745316 268.291412,234.871231 270.961426,239.704376 
	C270.993317,239.990204 271.029449,239.961044 270.677032,239.953873 
	C270.206635,240.310699 270.088623,240.674698 269.990295,241.019531 
	C270.009949,241.000366 270.051056,240.964005 270.051056,240.963989 
z"/>
<path fill="#1C4646" opacity="1.000000" stroke="none" 
	d="
M292.055969,242.953766 
	C288.587402,242.769180 284.606293,246.577820 281.822327,241.575531 
	C286.857758,237.777161 288.532990,237.977371 291.634583,242.876190 
	C292.017456,242.985809 292.055969,242.953766 292.055969,242.953766 
z"/>
<path fill="#1C4646" opacity="1.000000" stroke="none" 
	d="
M270.973053,240.001495 
	C273.401306,240.597809 275.849823,241.182831 278.298309,241.767838 
	C278.322357,242.455719 278.346375,243.143585 278.370392,243.831451 
	C276.280029,244.262329 274.170563,245.051804 272.109070,244.941803 
	C271.320374,244.899719 270.641479,242.800598 269.981812,241.301422 
	C270.051056,240.964005 270.009949,241.000366 270.342896,241.027634 
	C270.793732,240.690277 270.911591,240.325668 271.029449,239.961044 
	C271.029449,239.961044 270.993317,239.990204 270.973053,240.001495 
z"/>
<path fill="#1C4646" opacity="1.000000" stroke="none" 
	d="
M221.998062,221.974762 
	C224.889786,222.092606 227.800797,222.198563 230.711792,222.304535 
	C230.844482,223.035324 230.977158,223.766129 231.109848,224.496933 
	C229.179260,225.200928 227.213852,226.495026 225.331329,226.384003 
	C224.230728,226.319077 223.262451,224.010574 222.139435,222.318451 
	C222.044235,221.925491 222.017334,221.962891 221.998062,221.974762 
z"/>
<path fill="#1C4646" opacity="1.000000" stroke="none" 
	d="
M268.995117,231.004364 
	C271.573364,231.326874 274.170685,231.633072 276.768036,231.939270 
	C276.754944,232.437927 276.741852,232.936569 276.728790,233.435226 
	C275.840912,234.078064 274.953003,234.720901 274.025269,235.682526 
	C273.985413,236.001312 273.997162,235.973114 273.997162,235.973114 
	C272.084534,235.408676 270.153320,234.891800 268.302063,234.169968 
	C268.182007,234.123169 268.676666,232.499832 268.968994,231.282745 
	C269.052582,230.955643 269.014221,230.988052 268.995117,231.004364 
z"/>
<path fill="#1C4646" opacity="1.000000" stroke="none" 
	d="
M255.970840,232.000961 
	C258.648132,232.460495 261.345825,232.908829 264.869202,233.494385 
	C259.299591,238.448975 256.803589,238.229721 255.036896,233.283569 
	C255.040222,232.963181 255.006226,232.999359 255.353241,233.026794 
	C255.809204,232.689499 255.918167,232.324783 256.027100,231.960068 
	C256.027100,231.960068 255.991241,231.989761 255.970840,232.000961 
z"/>
<path fill="#1A4343" opacity="1.000000" stroke="none" 
	d="
M242.923767,235.027039 
	C246.143906,235.027039 249.364059,235.027039 252.584198,235.027039 
	C247.975891,240.401443 246.032013,240.238251 243.218033,235.275879 
	C242.952652,234.982529 242.923767,235.027039 242.923767,235.027039 
z"/>
<path fill="#1C4646" opacity="1.000000" stroke="none" 
	d="
M273.970459,236.008240 
	C280.889099,235.093262 280.889099,235.093262 283.819489,237.413528 
	C279.157593,241.338028 276.941132,241.088409 274.332916,236.178055 
	C273.997162,235.973114 273.985413,236.001312 273.970459,236.008240 
z"/>
<path fill="#1C4646" opacity="1.000000" stroke="none" 
	d="
M258.001099,242.995911 
	C255.423523,242.597610 252.825516,242.217316 249.204590,241.687271 
	C253.559006,237.559845 256.656586,237.059174 259.917297,240.797577 
	C259.309692,241.342133 258.721527,241.869247 258.036041,242.722412 
	C257.938690,243.048447 257.980713,243.013916 258.001099,242.995911 
z"/>
<path fill="#1C4646" opacity="1.000000" stroke="none" 
	d="
M289.946625,254.017517 
	C292.839874,254.400253 295.817139,250.649796 298.640991,254.122009 
	C299.124878,254.717010 299.188354,255.653946 299.714783,256.751282 
	C299.983521,257.069611 300.002319,257.029114 300.021973,257.019409 
	C296.703522,256.828949 292.430511,260.119171 290.276855,254.212845 
	C289.985321,253.967438 289.965912,254.006226 289.946625,254.017517 
z"/>
<path fill="#1C4646" opacity="1.000000" stroke="none" 
	d="
M291.998260,243.001923 
	C294.212128,243.688873 296.445190,244.359695 299.149689,245.172150 
	C294.122955,249.429504 294.122955,249.429504 288.993378,246.007156 
	C290.017029,245.156860 290.945984,244.385239 291.965454,243.283691 
	C292.055969,242.953766 292.017456,242.985809 291.998260,243.001923 
z"/>
<path fill="#1C4646" opacity="1.000000" stroke="none" 
	d="
M278.999512,259.008850 
	C279.295166,258.230835 279.587341,257.443695 279.968811,256.304443 
	C280.058105,255.952286 280.016815,255.987732 279.997070,256.006104 
	C283.129974,254.739548 286.213135,253.945999 288.765594,257.466278 
	C286.125885,261.163239 282.926117,260.217987 279.296600,258.697754 
	C278.976044,258.990692 278.996033,258.999786 278.999512,259.008850 
z"/>
<path fill="#1C4646" opacity="1.000000" stroke="none" 
	d="
M274.004822,251.018433 
	C271.112823,251.008347 268.203430,251.008347 265.294037,251.008347 
	C265.136139,250.194168 264.978241,249.379974 264.820374,248.565796 
	C266.727783,247.842453 268.673309,246.507385 270.528442,246.623001 
	C271.658295,246.693420 272.648834,248.999817 273.833130,250.682480 
	C273.964355,251.063110 273.987427,251.028503 274.004822,251.018433 
z"/>
<path fill="#1C4646" opacity="1.000000" stroke="none" 
	d="
M216.016235,216.986328 
	C212.661423,218.472977 209.468124,218.833420 206.854645,215.514984 
	C211.939636,211.802933 214.064453,212.005310 216.002426,216.717712 
	C215.960754,217.037781 215.997574,217.003281 216.016235,216.986328 
z"/>
<path fill="#1C4646" opacity="1.000000" stroke="none" 
	d="
M227.067749,215.948273 
	C224.168198,215.641876 221.268631,215.335480 217.148117,214.900070 
	C220.939270,211.347672 223.541397,209.751480 226.565247,212.493271 
	C227.053284,212.935776 226.636566,214.376114 226.830627,215.669861 
	C227.023178,215.984512 227.067749,215.948288 227.067749,215.948273 
z"/>
<path fill="#1C4646" opacity="1.000000" stroke="none" 
	d="
M234.457291,209.561768 
	C236.604721,210.119034 238.433853,210.861771 240.546677,211.719696 
	C237.004974,215.692413 233.997528,215.583130 230.575256,212.064575 
	C231.810196,211.261536 232.974609,210.504379 234.457291,209.561768 
z"/>
<path fill="#1C4646" opacity="1.000000" stroke="none" 
	d="
M231.277527,206.516800 
	C231.726074,207.448883 232.128815,208.755753 231.990372,208.815842 
	C230.412308,209.500839 228.757370,210.381973 227.111145,210.406143 
	C226.003708,210.422409 224.877411,209.154922 223.416840,208.249252 
	C225.682617,205.690826 227.755020,203.945343 231.277527,206.516800 
z"/>
<path fill="#1C4646" opacity="1.000000" stroke="none" 
	d="
M237.995819,230.009552 
	C240.502472,230.390350 243.029251,230.752396 246.900696,231.307114 
	C244.726288,233.036819 243.883209,233.707489 242.981934,234.702591 
	C242.923767,235.027039 242.952652,234.982529 242.976105,234.971222 
	C241.143234,234.549728 239.252075,234.236511 237.477509,233.598831 
	C237.270432,233.524460 237.707520,231.657440 237.952408,230.288849 
	C238.058823,229.956207 238.015961,229.990784 237.995819,230.009552 
z"/>
<path fill="#1C4646" opacity="1.000000" stroke="none" 
	d="
M310.145081,252.135681 
	C311.405518,252.931305 312.328613,253.581711 313.269745,254.244797 
	C309.951477,257.939453 306.743591,257.591980 302.709808,253.604874 
	C305.455750,252.980301 307.631744,252.485367 310.145081,252.135681 
z"/>
<path fill="#1C4646" opacity="1.000000" stroke="none" 
	d="
M300.227234,252.729889 
	C298.795502,251.897751 297.712219,251.209900 296.419800,250.389236 
	C299.477570,246.369736 302.476807,246.696136 306.257416,250.462585 
	C304.171600,251.347885 302.373627,252.111023 300.227234,252.729889 
z"/>
<path fill="#1C4646" opacity="1.000000" stroke="none" 
	d="
M227.001923,216.003845 
	C229.484741,216.023163 231.988815,216.023163 234.492874,216.023163 
	C234.655334,216.764252 234.817810,217.505325 234.980286,218.246414 
	C233.094116,218.951355 231.233994,220.002869 229.305756,220.147720 
	C228.735565,220.190567 224.509277,219.967422 226.960114,216.288422 
	C227.067749,215.948288 227.023178,215.984512 227.001923,216.003845 
z"/>
<path fill="#1C4646" opacity="1.000000" stroke="none" 
	d="
M244.341736,214.098221 
	C245.640579,214.876770 246.593353,215.499435 247.678009,216.208282 
	C244.392136,219.805542 241.284027,219.912415 237.425079,215.712189 
	C239.911240,215.042511 241.953461,214.492432 244.341736,214.098221 
z"/>
<path fill="#1C4646" opacity="1.000000" stroke="none" 
	d="
M262.036072,225.971466 
	C258.904297,227.034424 255.675766,228.864639 253.032440,225.022644 
	C256.970978,220.918152 258.128265,220.951584 261.973755,225.654343 
	C261.979950,226.028229 262.016632,225.989624 262.036072,225.971466 
z"/>
<path fill="#1A4343" opacity="1.000000" stroke="none" 
	d="
M248.620331,218.213196 
	C250.904007,218.611542 252.844070,219.159225 255.123093,219.802612 
	C250.586411,224.286591 250.391068,224.295456 245.192902,220.537598 
	C246.276962,219.772995 247.276840,219.067764 248.620331,218.213196 
z"/>
<path fill="#82C6C6" opacity="1.000000" stroke="none" 
	d="
M224.327026,231.042175 
	C224.087799,230.687378 224.205780,230.332642 224.677399,229.966461 
	C224.915451,230.317413 224.799835,230.679825 224.327026,231.042175 
z"/>
<path fill="#82C6C6" opacity="1.000000" stroke="none" 
	d="
M266.335449,256.056763 
	C266.103638,255.694077 266.239777,255.350937 266.703400,254.979416 
	C266.921722,255.326126 266.812592,255.701202 266.335449,256.056763 
z"/>
<path fill="#82C6C6" opacity="1.000000" stroke="none" 
	d="
M213.332932,227.036972 
	C213.753952,226.356461 214.553421,225.661835 215.696030,224.963089 
	C215.263245,225.646927 214.487305,226.334885 213.332932,227.036972 
z"/>
<path fill="#E3A9BC" opacity="1.000000" stroke="none" 
	d="
M273.022522,170.901962 
	C272.573761,170.314331 272.125000,169.726700 271.409790,169.004639 
	C271.143311,168.870193 271.113190,168.919815 271.110413,168.600403 
	C271.322968,167.277725 271.538300,166.274460 271.772522,165.183151 
	C270.762756,165.183151 269.820496,165.183151 268.466705,165.150208 
	C266.413483,165.030182 264.771790,164.943100 263.130096,164.856018 
	C263.030182,163.427551 262.930298,161.999100 262.837036,160.665955 
	C260.553497,160.868851 257.697052,161.122620 253.752029,161.473129 
	C255.019928,158.189728 255.915146,155.871429 256.971680,153.135406 
	C254.085632,153.790955 251.401016,154.400757 248.032196,155.011536 
	C246.865158,155.024475 246.382355,155.036438 245.899551,155.048401 
	C243.916763,153.983887 241.933960,152.919388 239.747864,151.485153 
	C239.544571,151.115417 239.501160,151.078827 239.501160,151.078827 
	C235.434921,151.074921 235.399643,148.709000 237.554855,146.619095 
	C239.633011,144.603928 242.589935,143.494980 245.618759,142.231323 
	C246.641724,142.890350 247.206726,143.305939 247.771729,143.721527 
	C247.925598,143.471085 248.079468,143.220627 248.233353,142.970184 
	C247.456985,142.616791 246.680618,142.263412 245.904251,141.910019 
	C248.520599,141.266754 251.125458,140.244171 253.758881,140.164429 
	C254.832123,140.131927 255.967331,142.145081 256.793640,143.725739 
	C256.260315,144.764954 256.007690,145.305969 255.755081,145.846970 
	C254.953949,147.691208 254.152802,149.535431 253.675858,151.682388 
	C254.000046,151.985107 254.160767,151.970139 254.160767,151.970139 
	C255.630356,150.375900 257.099945,148.781647 258.632660,147.118912 
	C262.627716,151.383865 262.675110,155.172638 257.454773,158.630005 
	C257.797333,159.044159 258.139893,159.458328 258.482452,159.872482 
	C262.097412,158.444153 265.712402,157.015808 269.327362,155.587479 
	C269.714905,155.772018 270.102478,155.956543 270.490021,156.141083 
	C269.156769,158.028290 267.823547,159.915482 266.266602,162.119293 
	C268.997925,164.027191 271.633118,163.393372 272.820740,160.802399 
	C274.247040,157.690689 275.093079,155.280182 279.215881,157.359879 
	C280.094391,157.803024 281.822144,156.562698 283.228302,156.073730 
	C283.855011,163.241928 286.172974,164.175919 293.482605,160.736435 
	C293.482605,162.748062 293.482605,164.918228 293.482605,167.265564 
	C292.231110,167.374191 289.931091,167.004990 288.318878,167.889496 
	C286.972443,168.628174 286.431335,170.834854 285.533600,172.391418 
	C287.344696,172.618500 289.625977,173.651733 290.878540,172.921173 
	C294.606781,170.746780 297.899872,171.598206 302.191345,172.744995 
	C300.251526,175.107010 298.847839,176.816177 297.444153,178.525345 
	C297.604340,178.945206 297.764526,179.365082 297.924744,179.784943 
	C300.037476,179.126724 302.590698,179.007111 304.179321,177.708008 
	C308.708801,174.004059 311.907379,177.912048 315.203247,179.565765 
	C315.983124,179.957077 315.012543,183.837067 314.794922,186.831009 
	C317.545258,185.777512 320.382660,184.690659 324.758881,183.014359 
	C323.094513,186.119019 322.152008,187.877151 320.841248,190.322174 
	C323.757324,189.472824 326.253967,188.745621 328.750610,188.018433 
	C328.918335,188.371811 329.086029,188.725189 329.253754,189.078568 
	C328.282654,190.418488 327.311554,191.758408 325.755402,193.905579 
	C328.325714,193.467133 329.956329,193.188980 331.756317,192.881943 
	C331.722107,193.569946 331.830963,194.379044 331.656799,194.445389 
	C326.772003,196.306747 321.896057,198.205902 316.936646,199.851730 
	C313.648010,200.943085 312.234070,198.357544 310.469086,195.767853 
	C310.178131,195.401337 310.162933,195.127045 310.337158,194.937592 
	C310.648285,194.435822 310.785156,194.123520 310.945770,193.500122 
	C310.974335,192.773926 310.979156,192.358826 310.993225,191.973846 
	C311.002502,192.003983 310.939667,192.009308 311.192932,191.919769 
	C311.192932,191.609573 310.939667,191.388901 310.468079,190.890930 
	C310.195557,189.922150 310.141357,189.230698 310.087158,188.539230 
	C310.714478,186.187363 311.341766,183.835495 312.195465,180.634903 
	C309.113434,182.362289 306.268799,183.956604 303.424194,185.550934 
	C303.158813,185.177994 302.893433,184.805054 302.628052,184.432114 
	C303.310730,183.382980 303.993439,182.333847 304.676147,181.284698 
	C296.978027,185.777252 293.287048,176.376389 286.717682,176.534225 
	C285.893585,177.718674 284.888702,179.162933 283.672974,180.420105 
	C283.299408,179.175949 283.136719,178.118835 282.974030,177.061737 
	C282.848633,176.478485 282.723236,175.895233 282.264893,174.849762 
	C281.614441,173.944199 281.296906,173.500824 280.979370,173.057465 
	C281.018280,172.890121 281.057220,172.722763 281.304016,172.097961 
	C280.988251,171.377716 280.464600,171.114914 279.940948,170.852112 
	C278.875916,170.896744 277.810913,170.941360 276.110596,170.908508 
	C274.657715,170.854675 273.840118,170.878311 273.022522,170.901962 
M285.031738,164.091293 
	C282.914185,163.420486 280.712402,162.078262 278.710571,162.329498 
	C277.500549,162.481354 276.600769,165.105377 275.561615,166.618637 
	C276.634460,167.355270 278.077759,168.950729 278.714386,168.676117 
	C281.145721,167.627319 283.317291,165.976364 285.031738,164.091293 
M244.796356,152.871582 
	C246.055511,152.726547 248.120377,152.956131 248.399673,152.355469 
	C248.919632,151.237274 248.399872,149.635590 248.312881,148.235153 
	C247.667343,148.024734 247.021805,147.814316 246.376282,147.603912 
	C245.661591,149.231491 244.946899,150.859055 244.796356,152.871582 
M253.029343,143.494904 
	C252.340378,144.072037 251.651428,144.649185 250.962463,145.226318 
	C251.226578,145.487961 251.490677,145.749588 251.754791,146.011230 
	C252.308243,145.281937 252.861710,144.552658 253.029343,143.494904 
M242.658951,146.338867 
	C243.306564,146.106857 243.954178,145.874832 244.601807,145.642822 
	C244.436615,145.314377 244.271439,144.985916 244.106247,144.657471 
	C243.673431,145.065491 243.240616,145.473526 242.658951,146.338867 
z"/>
<path fill="#8CCECF" opacity="1.000000" stroke="none" 
	d="
M262.901611,165.131348 
	C264.771790,164.943100 266.413483,165.030182 268.307800,165.331055 
	C266.264832,169.049774 270.139099,167.887985 271.113190,168.919815 
	C271.113190,168.919815 271.143311,168.870193 271.171875,168.860016 
	C269.371277,170.181656 267.542114,171.513474 265.364044,173.099335 
	C264.783997,171.905869 264.292114,170.893890 263.647156,169.566925 
	C262.333466,171.602142 261.219543,173.327911 260.107513,175.050720 
	C264.425568,177.860855 264.425568,177.860855 259.227783,180.957947 
	C253.917435,174.313095 260.711914,170.371933 262.901611,165.131348 
z"/>
<path fill="#8CCECF" opacity="1.000000" stroke="none" 
	d="
M269.970947,173.958160 
	C273.747284,172.665756 275.792511,175.836731 278.747070,177.520920 
	C278.982605,177.771286 278.916779,177.988403 278.644531,177.972992 
	C277.754333,178.267609 277.136383,178.577667 276.152161,178.882431 
	C275.544556,178.914505 275.303223,178.951889 275.037964,178.664520 
	C274.986084,178.124481 274.958130,177.909210 274.908630,177.401093 
	C274.227295,177.721024 273.567505,178.333786 272.938416,178.979050 
	C272.969116,179.011551 272.921539,178.940201 272.563721,178.955887 
	C271.830078,179.825912 271.454254,180.680252 271.044769,181.574127 
	C271.011108,181.613647 270.926270,181.553802 270.725281,181.493881 
	C270.275391,181.561157 270.049683,181.721008 269.637024,181.970703 
	C269.426941,182.027893 269.008026,181.908844 268.933838,181.644669 
	C268.723022,180.898132 268.586395,180.415756 268.589233,179.619232 
	C269.142761,177.522781 269.556854,175.740463 269.970947,173.958160 
z"/>
<path fill="#8CCECF" opacity="1.000000" stroke="none" 
	d="
M289.733124,193.020599 
	C289.152222,192.816437 288.571320,192.612274 287.945587,192.062378 
	C287.900757,191.716614 287.958771,191.487259 288.246033,191.302383 
	C288.168243,190.900833 287.803253,190.684158 287.282104,190.431686 
	C286.912476,190.376495 286.699097,190.377563 286.084106,190.253876 
	C285.438354,189.965118 285.194275,189.821564 284.986176,189.412598 
	C285.043213,188.790878 285.064301,188.434601 285.407227,188.094223 
	C286.156464,188.083466 286.583862,188.056793 287.000061,188.024612 
	C286.988861,188.019089 286.966949,188.007080 287.003021,188.203583 
	C287.392365,188.406799 287.745667,188.413513 288.497437,188.357605 
	C289.638458,187.985413 290.380951,187.675797 291.060486,187.795975 
	C291.469025,189.523865 291.940491,190.821960 292.027618,192.142395 
	C291.006561,192.450027 290.369843,192.735306 289.733124,193.020599 
z"/>
<path fill="#183E3E" opacity="1.000000" stroke="none" 
	d="
M282.714722,177.285751 
	C283.136719,178.118835 283.299408,179.175949 283.383423,180.541046 
	C283.162628,181.497925 283.020508,182.146790 282.699982,183.295181 
	C282.521606,183.794708 282.398651,183.948685 281.929626,184.007324 
	C281.115295,184.594391 280.769989,185.122833 279.996399,185.569839 
	C279.705902,184.650406 279.843689,183.812393 279.987305,182.984406 
	C279.993164,182.994461 279.970306,182.996460 280.244080,182.766037 
	C280.284149,181.602097 280.050476,180.668579 279.699371,179.600342 
	C279.360352,179.368515 279.164734,179.233719 278.975525,178.793015 
	C278.942902,178.346008 278.929840,178.167206 278.916779,177.988403 
	C278.916779,177.988403 278.982605,177.771286 279.011597,177.661530 
	C280.178864,177.537766 281.317139,177.523773 282.714722,177.285751 
z"/>
<path fill="#2EE3E3" opacity="1.000000" stroke="none" 
	d="
M282.398651,183.948685 
	C282.398651,183.948685 282.521606,183.794708 282.561523,183.772186 
	C283.082153,183.529953 283.562866,183.310242 284.322876,183.346161 
	C284.265564,184.311417 283.928925,185.021027 283.317749,185.982391 
	C281.337372,188.696274 281.618927,190.745255 284.303162,192.294754 
	C282.956116,190.948578 281.609070,189.602402 280.228516,187.691315 
	C280.195007,187.126404 279.993591,187.050980 279.984253,187.053070 
	C279.974945,187.055145 279.959473,187.068283 280.275543,187.075668 
	C280.754517,186.710190 280.917419,186.337311 281.064270,185.987122 
	C281.048248,186.009827 281.020813,186.058151 281.283478,185.870941 
	C281.830322,185.105377 282.114471,184.527023 282.398651,183.948685 
z"/>
<path fill="#1C4041" opacity="1.000000" stroke="none" 
	d="
M284.498322,192.285095 
	C281.618927,190.745255 281.337372,188.696274 283.491028,186.405472 
	C283.978546,186.879318 284.018280,187.181793 284.083649,187.730835 
	C284.073761,188.625031 284.038208,189.272614 284.133575,190.183777 
	C285.004913,190.431259 285.745392,190.415176 286.485840,190.399078 
	C286.699097,190.377563 286.912476,190.376495 287.425659,190.680542 
	C287.803162,191.139221 287.880981,191.313232 287.958771,191.487259 
	C287.958771,191.487259 287.900757,191.716614 287.898804,191.835281 
	C286.829071,192.061111 285.761292,192.168274 284.498322,192.285095 
z"/>
<path fill="#2EE3E3" opacity="1.000000" stroke="none" 
	d="
M275.061890,178.989273 
	C275.303223,178.951889 275.544556,178.914505 276.025696,179.162704 
	C276.218567,179.646240 276.171631,179.844208 275.984283,180.409790 
	C276.144623,181.049210 276.445374,181.321045 276.646667,181.593201 
	C276.547211,181.593552 276.466797,181.775513 276.143402,181.518799 
	C275.242218,183.165283 274.664429,185.068466 274.086639,186.971649 
	C273.432831,186.007996 272.779053,185.044342 272.387207,183.570099 
	C273.453430,181.702744 274.257660,180.346008 275.061890,178.989273 
z"/>
<path fill="#1C4041" opacity="1.000000" stroke="none" 
	d="
M274.059326,186.988190 
	C274.664429,185.068466 275.242218,183.165283 276.299561,181.583130 
	C276.779114,181.904144 277.089386,182.037643 277.068756,182.290802 
	C276.849365,183.010300 276.650604,183.476639 276.154449,184.017410 
	C276.200104,184.739746 276.543152,185.387619 276.998993,186.152573 
	C277.111755,186.269653 277.475403,186.549438 277.475403,186.549438 
	C277.475403,186.549438 277.873566,186.364838 278.284088,186.190292 
	C279.127594,186.360825 279.560608,186.705902 279.993591,187.050980 
	C279.993591,187.050980 280.195007,187.126404 280.201355,187.232483 
	C279.132690,187.602249 278.057739,187.865921 276.355957,187.873901 
	C275.158875,187.392960 274.588623,187.167694 274.018341,186.942413 
	C274.018341,186.942413 274.031982,187.004730 274.059326,186.988190 
z"/>
<path fill="#183E3E" opacity="1.000000" stroke="none" 
	d="
M269.653290,173.984619 
	C269.556854,175.740463 269.142761,177.522781 268.248718,179.645035 
	C267.540680,180.357025 267.312592,180.729065 267.084534,181.101105 
	C266.717072,180.651794 266.349579,180.202469 266.299774,179.269852 
	C267.013641,177.861191 267.409851,176.935837 267.806091,176.010498 
	C268.315948,175.344025 268.825775,174.677567 269.653290,173.984619 
z"/>
<path fill="#1C4041" opacity="1.000000" stroke="none" 
	d="
M297.072662,192.843201 
	C295.979279,193.785141 294.885925,194.727097 293.806946,195.188416 
	C293.821289,194.707779 293.952728,194.281097 294.265747,194.100464 
	C294.791321,193.243439 295.003815,192.567047 295.361084,191.846603 
	C295.505859,191.802567 295.774536,191.941849 296.028900,192.031357 
	C296.546387,192.361649 296.809540,192.602432 297.072662,192.843201 
z"/>
<path fill="#183E3E" opacity="1.000000" stroke="none" 
	d="
M309.716888,188.657837 
	C310.141357,189.230698 310.195557,189.922150 310.446472,191.126617 
	C310.643219,191.639633 310.939667,192.009308 310.939667,192.009308 
	C310.939667,192.009308 311.002502,192.003983 310.667267,192.055267 
	C310.217346,192.744019 310.102661,193.381516 310.011963,194.009796 
	C310.035950,194.000595 310.012878,193.953964 309.706696,193.990311 
	C309.302612,194.406235 309.204742,194.785797 308.966675,195.326782 
	C308.826447,195.488190 308.533478,195.799698 308.221313,195.600372 
	C307.815491,194.924149 307.721832,194.447250 307.628174,193.970367 
	C308.200989,192.239059 308.773773,190.507767 309.716888,188.657837 
z"/>
<path fill="#183E3E" opacity="1.000000" stroke="none" 
	d="
M291.123444,187.366180 
	C290.380951,187.675797 289.638458,187.985413 288.234436,188.198090 
	C287.370911,188.069809 287.168915,188.038437 286.966949,188.007080 
	C286.966949,188.007080 286.988861,188.019089 286.854126,187.815308 
	C286.477356,187.373856 286.235291,187.136185 286.126831,186.722107 
	C286.260468,186.545700 286.492096,186.168533 286.668945,186.104645 
	C287.109192,186.005554 287.371338,185.962753 287.882080,186.012146 
	C289.015594,185.688065 289.899231,185.264175 290.782867,184.840286 
	C290.903625,185.398514 291.024384,185.956726 291.124451,186.936157 
	C291.103760,187.357346 291.123444,187.366196 291.123444,187.366180 
z"/>
<path fill="#000000" opacity="1.000000" stroke="none" 
	d="
M295.774536,191.941849 
	C295.774536,191.941849 295.505859,191.802567 295.124268,191.730804 
	C294.567291,191.673218 294.391876,191.687408 294.244598,191.692932 
	C294.272705,191.684280 294.311646,191.640213 294.148743,191.386353 
	C293.560608,190.740417 293.135376,190.348343 292.946411,189.693420 
	C293.108673,189.206787 293.034637,188.983002 292.973450,188.788483 
	C292.986359,188.817719 293.087585,188.813354 293.087585,188.813354 
	C293.445465,188.926437 293.803375,189.039536 294.737427,189.378571 
	C295.605621,189.955643 295.897614,190.306763 296.114502,190.988129 
	C295.951080,191.526215 295.862823,191.734039 295.774536,191.941849 
z"/>
<path fill="#D49CB0" opacity="1.000000" stroke="none" 
	d="
M296.028900,192.031357 
	C295.862823,191.734039 295.951080,191.526215 296.391357,190.849304 
	C296.712799,189.586456 296.682220,188.792709 296.651642,187.998962 
	C297.461182,187.591095 298.270721,187.183228 299.942810,186.340805 
	C298.934509,188.815247 298.258698,190.473709 297.327789,192.487686 
	C296.809540,192.602432 296.546387,192.361649 296.028900,192.031357 
z"/>
<path fill="#CF2121" opacity="1.000000" stroke="none" 
	d="
M275.037964,178.664520 
	C274.257660,180.346008 273.453430,181.702744 272.359528,183.231018 
	C271.806488,183.422058 271.543091,183.441559 270.959900,183.089142 
	C270.735535,182.329422 270.830902,181.941620 270.926270,181.553802 
	C270.926270,181.553802 271.011108,181.613647 271.417542,181.556183 
	C272.189850,180.645874 272.555695,179.793045 272.921539,178.940201 
	C272.921539,178.940201 272.969116,179.011551 273.248413,178.929962 
	C273.995209,178.463547 274.462677,178.078720 274.930176,177.693909 
	C274.958130,177.909210 274.986084,178.124481 275.037964,178.664520 
z"/>
<path fill="#2EE3E3" opacity="1.000000" stroke="none" 
	d="
M292.710114,189.956268 
	C293.135376,190.348343 293.560608,190.740417 293.689148,191.532440 
	C293.073730,191.971603 292.755035,192.010849 292.437073,192.070068 
	C292.437805,192.090073 292.411957,192.120056 292.411957,192.120056 
	C291.940491,190.821960 291.469025,189.523865 291.060486,187.795990 
	C291.123444,187.366196 291.103760,187.357346 291.121124,187.370697 
	C291.138489,187.384064 291.480347,187.165558 291.719360,187.479294 
	C292.010132,188.274612 292.061890,188.756210 292.160950,189.394028 
	C292.327667,189.744736 292.494965,189.880081 292.710114,189.956268 
z"/>
<path fill="#000000" opacity="1.000000" stroke="none" 
	d="
M286.492096,186.168533 
	C286.492096,186.168533 286.260468,186.545700 285.797852,186.736664 
	C285.146820,187.039719 284.958344,187.151810 284.574219,187.261917 
	C284.378601,187.259949 284.058014,187.484253 284.058014,187.484253 
	C284.018280,187.181793 283.978546,186.879318 283.765564,186.153748 
	C283.928925,185.021027 284.265564,184.311417 284.720764,183.336304 
	C285.034027,183.059113 285.228821,183.047455 285.719360,183.340805 
	C286.013855,183.822052 286.012634,183.998260 285.871094,184.529846 
	C285.984528,185.313004 286.238312,185.740768 286.492096,186.168533 
z"/>
<path fill="#1C4646" opacity="1.000000" stroke="none" 
	d="
M292.027618,192.142395 
	C292.411957,192.120056 292.437805,192.090073 292.314911,192.466705 
	C292.545074,193.568726 292.898102,194.294113 293.251160,195.019501 
	C292.265717,194.494385 291.280273,193.969284 290.013977,193.232391 
	C290.369843,192.735306 291.006561,192.450027 292.027618,192.142395 
z"/>
<path fill="#82C6C6" opacity="1.000000" stroke="none" 
	d="
M290.740936,184.666229 
	C289.899231,185.264175 289.015594,185.688065 287.854553,185.776520 
	C287.279968,185.080841 286.982758,184.720566 286.792297,184.234711 
	C286.899048,184.109100 287.109467,183.855316 287.109467,183.855316 
	C287.109467,183.855316 287.530975,183.902115 288.126465,184.050766 
	C289.207825,184.132004 289.693695,184.064590 290.179535,183.997192 
	C290.398102,184.114609 290.571259,184.279602 290.740936,184.666229 
z"/>
<path fill="#1C4646" opacity="1.000000" stroke="none" 
	d="
M270.765839,183.709991 
	C269.540649,183.226059 268.315460,182.742142 267.487854,181.994675 
	C268.259644,181.790375 268.633820,181.849609 269.008026,181.908844 
	C269.008026,181.908844 269.426941,182.027893 269.867950,182.144318 
	C270.461243,182.743835 270.613556,183.226913 270.765839,183.709991 
z"/>
<path fill="#2EE3E3" opacity="1.000000" stroke="none" 
	d="
M296.286285,188.080643 
	C296.682220,188.792709 296.712799,189.586456 296.466492,190.519043 
	C295.897614,190.306763 295.605621,189.955643 295.291748,189.477295 
	C295.486877,188.954147 295.703918,188.558228 296.286285,188.080643 
z"/>
<path fill="#2EE3E3" opacity="1.000000" stroke="none" 
	d="
M307.448303,194.158936 
	C307.721832,194.447250 307.815491,194.924149 308.229492,195.646667 
	C308.549866,195.892319 308.558136,195.986511 308.558136,195.986511 
	C308.116760,196.066040 307.675354,196.145584 307.233978,196.225113 
	C307.245453,195.599243 307.256958,194.973373 307.448303,194.158936 
z"/>
<path fill="#8CCECF" opacity="1.000000" stroke="none" 
	d="
M267.501434,176.122223 
	C267.409851,176.935837 267.013641,177.861191 266.347809,178.934082 
	C266.451050,178.132401 266.823914,177.183167 267.501434,176.122223 
z"/>
<path fill="#8CCECF" opacity="1.000000" stroke="none" 
	d="
M273.215668,171.120941 
	C273.840118,170.878311 274.657715,170.854675 275.711273,170.927811 
	C275.101105,171.129700 274.254944,171.234818 273.215668,171.120941 
z"/>
<path fill="#DAADBE" opacity="1.000000" stroke="none" 
	d="
M256.010345,145.717224 
	C256.007690,145.305969 256.260315,144.764954 256.703644,144.124283 
	C256.684753,144.545563 256.475159,145.066528 256.010345,145.717224 
z"/>
<path fill="#1C4646" opacity="1.000000" stroke="none" 
	d="
M292.113617,189.237793 
	C292.061890,188.756210 292.010132,188.274612 291.916260,187.430511 
	C292.487823,187.412430 293.101532,187.756866 293.401398,188.457336 
	C293.087585,188.813354 292.986359,188.817719 292.811035,188.993225 
	C292.461670,189.191757 292.287628,189.214767 292.113617,189.237793 
z"/>
<path fill="#2EE3E3" opacity="1.000000" stroke="none" 
	d="
M270.741760,183.743622 
	C270.613556,183.226913 270.461243,182.743835 270.078064,182.087128 
	C270.049683,181.721008 270.275391,181.561157 270.725281,181.493881 
	C270.830902,181.941620 270.735535,182.329422 270.635956,183.317215 
	C270.631744,183.917206 270.717651,183.777237 270.741760,183.743622 
z"/>
<path fill="#CF2121" opacity="1.000000" stroke="none" 
	d="
M268.933838,181.644653 
	C268.633820,181.849609 268.259644,181.790375 267.632812,181.577576 
	C267.380219,181.424026 267.203003,181.289062 267.143768,181.195068 
	C267.312592,180.729065 267.540680,180.357025 268.109283,179.959198 
	C268.586395,180.415756 268.723022,180.898132 268.933838,181.644653 
z"/>
<path fill="#8CCECF" opacity="1.000000" stroke="none" 
	d="
M280.815857,173.253296 
	C281.296906,173.500824 281.614441,173.944199 282.056244,174.630798 
	C281.671143,174.399063 281.161743,173.924103 280.815857,173.253296 
z"/>
<path fill="#82C6C6" opacity="1.000000" stroke="none" 
	d="
M293.318542,195.057968 
	C292.898102,194.294113 292.545074,193.568726 292.314209,192.446716 
	C292.755035,192.010849 293.073730,191.971603 293.852051,191.786285 
	C294.311646,191.640213 294.272705,191.684280 294.163940,192.118927 
	C294.020996,193.129410 293.986847,193.705246 293.952728,194.281097 
	C293.952728,194.281097 293.821289,194.707779 293.677551,194.878693 
	C293.533813,195.049622 293.385895,195.096451 293.318542,195.057968 
z"/>
<path fill="#DAADBE" opacity="1.000000" stroke="none" 
	d="
M254.137604,151.923340 
	C254.160767,151.970139 254.000046,151.985107 253.984497,151.983597 
	C253.968964,151.982086 254.114426,151.876526 254.137604,151.923340 
z"/>
<path fill="#183E3E" opacity="1.000000" stroke="none" 
	d="
M290.050903,183.682816 
	C289.693695,184.064590 289.207825,184.132004 288.337341,184.073227 
	C288.609192,183.754181 289.265717,183.561310 290.050903,183.682816 
z"/>
<path fill="#2EE3E3" opacity="1.000000" stroke="none" 
	d="
M274.147797,187.250854 
	C274.588623,187.167694 275.158875,187.392960 275.941589,187.854385 
	C275.528412,187.913467 274.902832,187.736374 274.147797,187.250854 
z"/>
<path fill="#DAADBE" opacity="1.000000" stroke="none" 
	d="
M246.093384,155.203705 
	C246.382355,155.036438 246.865158,155.024475 247.710190,155.024292 
	C247.477356,155.143738 246.882294,155.251373 246.093384,155.203705 
z"/>
<path fill="#8CCECF" opacity="1.000000" stroke="none" 
	d="
M280.121094,171.093719 
	C280.464600,171.114914 280.988251,171.377716 281.382690,171.852524 
	C280.936035,171.821457 280.618622,171.578384 280.121094,171.093719 
z"/>
<path fill="#D49CB0" opacity="1.000000" stroke="none" 
	d="
M308.979126,195.960312 
	C308.558136,195.986511 308.549866,195.892319 308.541687,195.846008 
	C308.533478,195.799698 308.826447,195.488190 309.198425,195.324844 
	C309.570374,195.161499 310.007568,195.006699 310.045898,195.037445 
	C310.084229,195.068207 310.162933,195.127045 310.162933,195.127045 
	C310.162933,195.127045 310.178131,195.401337 310.189819,195.535889 
	C309.934357,195.758331 309.667267,195.846222 308.979126,195.960312 
z"/>
<path fill="#82C6C6" opacity="1.000000" stroke="none" 
	d="
M286.011444,184.174469 
	C286.012634,183.998260 286.013855,183.822052 286.009003,183.383270 
	C286.319153,183.151978 286.587128,183.282425 286.958130,183.683716 
	C287.109467,183.855316 286.899048,184.109100 286.622467,184.193008 
	C286.345886,184.276917 286.011444,184.174469 286.011444,184.174469 
z"/>
<path fill="#DAADBE" opacity="1.000000" stroke="none" 
	d="
M239.506287,151.108246 
	C239.501160,151.078827 239.544571,151.115417 239.555283,151.116913 
	C239.565994,151.118408 239.511414,151.137665 239.506287,151.108246 
z"/>
<path fill="#82C6C6" opacity="1.000000" stroke="none" 
	d="
M240.337341,225.044769 
	C240.093262,224.686462 240.213699,224.336761 240.681061,223.972107 
	C240.919281,224.322540 240.810562,224.687958 240.337341,225.044769 
z"/>
<path fill="#82C6C6" opacity="1.000000" stroke="none" 
	d="
M285.676880,247.953491 
	C285.911499,248.325745 285.793610,248.690338 285.323181,249.046814 
	C285.088531,248.674408 285.206451,248.310120 285.676880,247.953491 
z"/>
<path fill="#82C6C6" opacity="1.000000" stroke="none" 
	d="
M255.677399,231.963959 
	C255.918167,232.324783 255.809204,232.689499 255.336548,233.045166 
	C255.091110,232.680038 255.209396,232.323944 255.677399,231.963959 
z"/>
<path fill="#82C6C6" opacity="1.000000" stroke="none" 
	d="
M270.677032,239.953873 
	C270.911591,240.325668 270.793732,240.690277 270.323242,241.046814 
	C270.088623,240.674698 270.206635,240.310699 270.677032,239.953873 
z"/>
<path fill="#8CCECF" opacity="1.000000" stroke="none" 
	d="
M285.308838,164.320786 
	C283.317291,165.976364 281.145721,167.627319 278.714386,168.676117 
	C278.077759,168.950729 276.634460,167.355270 275.561615,166.618637 
	C276.600769,165.105377 277.500549,162.481354 278.710571,162.329498 
	C280.712402,162.078262 282.914185,163.420486 285.308838,164.320786 
z"/>
<path fill="#DAADBE" opacity="1.000000" stroke="none" 
	d="
M244.514282,152.679108 
	C244.946899,150.859055 245.661591,149.231491 246.376282,147.603912 
	C247.021805,147.814316 247.667343,148.024734 248.312881,148.235153 
	C248.399872,149.635590 248.919632,151.237274 248.399673,152.355469 
	C248.120377,152.956131 246.055511,152.726547 244.514282,152.679108 
z"/>
<path fill="#92D9DB" opacity="1.000000" stroke="none" 
	d="
M271.110413,168.600403 
	C270.139099,167.887985 266.264832,169.049774 268.719330,165.363983 
	C269.820496,165.183151 270.762756,165.183151 271.772522,165.183151 
	C271.538300,166.274460 271.322968,167.277725 271.110413,168.600403 
z"/>
<path fill="#DAADBE" opacity="1.000000" stroke="none" 
	d="
M253.222260,143.659134 
	C252.861710,144.552658 252.308243,145.281937 251.754791,146.011230 
	C251.490677,145.749588 251.226578,145.487961 250.962463,145.226318 
	C251.651428,144.649185 252.340378,144.072037 253.222260,143.659134 
z"/>
<path fill="#DAADBE" opacity="1.000000" stroke="none" 
	d="
M242.733368,146.110214 
	C243.240616,145.473526 243.673431,145.065491 244.106247,144.657471 
	C244.271439,144.985916 244.436615,145.314377 244.601807,145.642822 
	C243.954178,145.874832 243.306564,146.106857 242.733368,146.110214 
z"/>
<path fill="#DAADBE" opacity="1.000000" stroke="none" 
	d="
M245.953354,141.951111 
	C246.680618,142.263412 247.456985,142.616791 248.233353,142.970184 
	C248.079468,143.220627 247.925598,143.471085 247.771729,143.721527 
	C247.206726,143.305939 246.641724,142.890350 245.991730,142.188065 
	C245.906708,141.901382 246.002457,141.992218 245.953354,141.951111 
z"/>
<path fill="#CF2121" opacity="1.000000" stroke="none" 
	d="
M309.987976,194.018997 
	C310.102661,193.381516 310.217346,192.744019 310.658020,192.025116 
	C310.979156,192.358826 310.974335,192.773926 310.717438,193.575150 
	C310.465332,193.961258 309.987976,194.018997 309.987976,194.018997 
z"/>
<path fill="#D49CB0" opacity="1.000000" stroke="none" 
	d="
M310.011963,194.009796 
	C309.987976,194.018997 310.465332,193.961258 310.693665,193.886230 
	C310.785156,194.123520 310.648285,194.435822 310.337158,194.937592 
	C310.162933,195.127045 310.084229,195.068207 310.079773,194.774445 
	C310.054535,194.305115 310.033722,194.129547 310.012878,193.953964 
	C310.012878,193.953964 310.035950,194.000595 310.011963,194.009796 
z"/>
<path fill="#CF2121" opacity="1.000000" stroke="none" 
	d="
M311.192932,191.919769 
	C310.939667,192.009308 310.643219,191.639633 310.664795,191.403931 
	C310.939667,191.388901 311.192932,191.609573 311.192932,191.919769 
z"/>
<path fill="#1C4646" opacity="1.000000" stroke="none" 
	d="
M276.622955,181.839828 
	C276.466797,181.775513 276.547211,181.593552 276.616302,181.307495 
	C276.498505,180.695038 276.311584,180.368607 276.124695,180.042191 
	C276.171631,179.844208 276.218567,179.646240 276.391968,179.167999 
	C277.136383,178.577667 277.754333,178.267609 278.644531,177.972992 
	C278.929840,178.167206 278.942902,178.346008 278.701050,178.932892 
	C277.993866,180.239868 277.541626,181.138763 277.089386,182.037643 
	C277.089386,182.037643 276.779114,181.904144 276.622955,181.839828 
z"/>
<path fill="#1C4646" opacity="1.000000" stroke="none" 
	d="
M274.908600,177.401093 
	C274.462677,178.078720 273.995209,178.463547 273.217712,178.897461 
	C273.567505,178.333786 274.227295,177.721024 274.908600,177.401093 
z"/>
<path fill="#1C4646" opacity="1.000000" stroke="none" 
	d="
M272.563721,178.955887 
	C272.555695,179.793045 272.189850,180.645874 271.451233,181.516663 
	C271.454254,180.680252 271.830078,179.825912 272.563721,178.955887 
z"/>
<path fill="#D49CB0" opacity="1.000000" stroke="none" 
	d="
M284.083649,187.730835 
	C284.058014,187.484253 284.378601,187.259949 284.649017,187.467072 
	C284.919434,187.674194 285.085388,188.078308 285.085388,188.078308 
	C285.064301,188.434601 285.043213,188.790878 284.740417,189.436462 
	C284.458710,189.725754 284.002686,189.920212 284.002686,189.920212 
	C284.038208,189.272614 284.073761,188.625031 284.083649,187.730835 
z"/>
<path fill="#2EE3E3" opacity="1.000000" stroke="none" 
	d="
M285.407227,188.094223 
	C285.085388,188.078308 284.919434,187.674194 284.844666,187.469040 
	C284.958344,187.151810 285.146820,187.039719 285.664246,186.913086 
	C286.235291,187.136185 286.477356,187.373856 286.865356,187.820831 
	C286.583862,188.056793 286.156464,188.083466 285.407227,188.094223 
z"/>
<path fill="#CF2121" opacity="1.000000" stroke="none" 
	d="
M284.133575,190.183777 
	C284.002686,189.920212 284.458710,189.725754 284.704468,189.701874 
	C285.194275,189.821564 285.438354,189.965118 286.084106,190.253876 
	C285.745392,190.415176 285.004913,190.431259 284.133575,190.183777 
z"/>
<path fill="#CF2121" opacity="1.000000" stroke="none" 
	d="
M288.246033,191.302383 
	C287.880981,191.313232 287.803162,191.139221 287.581787,190.716339 
	C287.803253,190.684158 288.168243,190.900833 288.246033,191.302383 
z"/>
<path fill="#2EE3E3" opacity="1.000000" stroke="none" 
	d="
M287.003021,188.203583 
	C287.168915,188.038437 287.370911,188.069809 287.835938,188.260681 
	C287.745667,188.413513 287.392365,188.406799 287.003021,188.203583 
z"/>
<path fill="#8CCECF" opacity="1.000000" stroke="none" 
	d="
M277.068756,182.290802 
	C277.541626,181.138763 277.993866,180.239868 278.720612,179.201111 
	C279.164734,179.233719 279.360352,179.368515 279.667450,180.011444 
	C279.825409,181.370346 279.897858,182.183411 279.970337,182.996460 
	C279.970306,182.996460 279.993164,182.994461 279.631592,183.058899 
	C278.804504,184.203842 278.339020,185.284332 277.873535,186.364838 
	C277.873566,186.364838 277.475403,186.549438 277.475403,186.549438 
	C277.475403,186.549438 277.111755,186.269653 276.982971,185.867172 
	C276.720062,184.957443 276.585938,184.450211 276.451843,183.942963 
	C276.650604,183.476639 276.849365,183.010300 277.068756,182.290802 
z"/>
<path fill="#2EE3E3" opacity="1.000000" stroke="none" 
	d="
M278.284058,186.190292 
	C278.339020,185.284332 278.804504,184.203842 279.625732,183.048859 
	C279.843689,183.812393 279.705902,184.650406 280.058014,185.798248 
	C280.547913,186.108063 281.020813,186.058151 281.020813,186.058151 
	C281.020813,186.058151 281.048248,186.009827 280.613220,185.679596 
	C280.105286,185.922348 280.032379,186.495316 279.959473,187.068283 
	C279.959473,187.068283 279.974945,187.055145 279.984253,187.053070 
	C279.560608,186.705902 279.127594,186.360825 278.284058,186.190292 
z"/>
<path fill="#2EE3E3" opacity="1.000000" stroke="none" 
	d="
M280.244080,182.766037 
	C279.897858,182.183411 279.825409,181.370346 279.784882,180.146179 
	C280.050476,180.668579 280.284149,181.602097 280.244080,182.766037 
z"/>
<path fill="#CF2121" opacity="1.000000" stroke="none" 
	d="
M281.283478,185.870941 
	C281.020813,186.058151 280.547913,186.108063 280.486298,185.879669 
	C280.769989,185.122833 281.115295,184.594391 281.929626,184.007324 
	C282.114471,184.527023 281.830322,185.105377 281.283478,185.870941 
z"/>
<path fill="#CF2121" opacity="1.000000" stroke="none" 
	d="
M280.275543,187.075668 
	C280.032379,186.495316 280.105286,185.922348 280.629211,185.656906 
	C280.917419,186.337311 280.754517,186.710190 280.275543,187.075668 
z"/>
<path fill="#1C4041" opacity="1.000000" stroke="none" 
	d="
M275.984283,180.409790 
	C276.311584,180.368607 276.498505,180.695038 276.715759,181.307159 
	C276.445374,181.321045 276.144623,181.049210 275.984283,180.409790 
z"/>
<path fill="#CF2121" opacity="1.000000" stroke="none" 
	d="
M276.154419,184.017410 
	C276.585938,184.450211 276.720062,184.957443 276.870239,185.750092 
	C276.543152,185.387619 276.200104,184.739746 276.154419,184.017410 
z"/>
<path fill="#2EE3E3" opacity="1.000000" stroke="none" 
	d="
M294.265747,194.100464 
	C293.986847,193.705246 294.020996,193.129410 294.135803,192.127563 
	C294.391876,191.687408 294.567291,191.673218 294.979492,191.774841 
	C295.003815,192.567047 294.791321,193.243439 294.265747,194.100464 
z"/>
<path fill="#CF2121" opacity="1.000000" stroke="none" 
	d="
M309.706696,193.990311 
	C310.033722,194.129547 310.054535,194.305115 310.041443,194.743683 
	C310.007568,195.006699 309.570374,195.161499 309.338623,195.163437 
	C309.204742,194.785797 309.302612,194.406235 309.706696,193.990311 
z"/>
<path fill="#CF2121" opacity="1.000000" stroke="none" 
	d="
M285.871094,184.529846 
	C286.011444,184.174469 286.345886,184.276917 286.515717,184.318604 
	C286.982758,184.720566 287.279968,185.080841 287.604706,185.676727 
	C287.371338,185.962753 287.109192,186.005554 286.668945,186.104645 
	C286.238312,185.740768 285.984528,185.313004 285.871094,184.529846 
z"/>
<path fill="#82C6C6" opacity="1.000000" stroke="none" 
	d="
M292.160950,189.394028 
	C292.287628,189.214767 292.461670,189.191757 292.798157,188.963989 
	C293.034637,188.983002 293.108673,189.206787 292.946411,189.693420 
	C292.494965,189.880081 292.327667,189.744736 292.160950,189.394028 
z"/>
</svg>