<svg version="1.1" id="Layer_1" xmlns="http://www.w3.org/2000/svg" xmlns:xlink="http://www.w3.org/1999/xlink" x="0px" y="0px"
	 width="100%" viewBox="0 0 843 250" enable-background="new 0 0 843 250" xml:space="preserve">
<path fill="#000000" opacity="1.000000" stroke="none" 
	d="
M550.000000,251.000000 
	C366.708466,251.000000 183.916946,251.000000 1.062706,251.000000 
	C1.062706,167.727570 1.062706,84.455070 1.062706,1.091286 
	C282.000000,1.091286 563.000000,1.091286 843.966309,1.091286 
	C843.966309,84.416382 843.966309,167.708206 843.966309,251.000000 
	C746.121765,251.000000 648.310852,251.000000 550.000000,251.000000 
M549.960510,105.106140 
	C549.973633,95.776665 550.094116,86.445824 549.975098,77.118034 
	C549.788208,62.466236 551.336182,64.998489 561.785400,65.017181 
	C564.635254,65.022278 567.070312,65.094841 567.068359,61.018051 
	C567.066406,56.983578 564.703796,56.968796 561.814270,56.978775 
	C547.820007,57.027096 533.824707,56.926868 519.831482,57.057449 
	C516.742065,57.086285 512.020081,55.313267 512.104248,61.036995 
	C512.186523,66.633896 516.910950,64.326347 519.926575,65.100632 
	C522.046631,65.644974 524.896667,66.658531 525.687683,68.298462 
	C526.905334,70.823036 526.972778,74.067482 526.946411,77.001312 
	C526.703247,104.102074 526.409119,131.202911 525.967163,158.301086 
	C525.787292,169.330536 525.610229,169.429642 514.950378,169.942123 
	C511.857452,170.090820 510.967957,171.342041 510.958527,174.234665 
	C510.944855,178.436218 513.756775,178.001160 516.447083,178.000900 
	C545.435608,177.998138 574.424133,177.999527 603.412659,177.999786 
	C604.721680,177.999802 606.030701,177.999786 607.452026,177.999786 
	C610.306824,167.222000 613.082764,156.800003 615.819641,146.367783 
	C616.488464,143.818161 615.917603,141.460434 613.049805,141.194443 
	C611.728455,141.071884 609.729004,142.375519 608.925964,143.610489 
	C606.057251,148.022125 604.034973,153.047653 600.810120,157.146881 
	C597.404175,161.476349 593.408203,167.684616 588.935364,168.385666 
	C576.312500,170.364120 563.312988,169.939667 549.837830,170.487564 
	C549.837830,158.175400 549.837830,147.047775 549.968140,135.005997 
	C549.923706,125.351089 549.879211,115.696175 549.960510,105.106140 
M343.071014,121.592796 
	C337.377625,113.300072 328.953552,109.190994 319.790100,105.974388 
	C313.148468,103.643013 306.704834,100.741623 300.196930,98.036583 
	C291.240326,94.313728 287.394226,80.072548 293.292084,70.979698 
	C299.598816,61.256447 316.044556,60.186466 324.332092,69.164314 
	C328.902954,74.115883 331.666962,80.709801 335.486908,86.401329 
	C336.263184,87.557915 338.520630,88.910835 339.385895,88.535973 
	C340.657593,87.985001 342.132324,85.915802 342.059998,84.572029 
	C341.590424,75.847816 340.722748,67.145096 339.990936,58.434883 
	C339.736633,55.407970 338.083496,53.482780 335.703888,56.101803 
	C332.644104,59.469444 330.031342,58.244884 326.523865,57.399338 
	C311.241821,53.715233 296.569489,52.698204 283.026459,63.902866 
	C269.963623,74.710251 269.270050,93.811203 275.927490,105.175133 
	C282.406372,116.234200 293.801056,121.204483 305.096252,125.954247 
	C309.633728,127.862305 314.171631,129.788376 318.601379,131.929581 
	C329.506897,137.200958 331.229034,146.534378 329.337158,157.127533 
	C327.809265,165.682877 321.146790,169.429565 313.609528,170.771774 
	C304.617889,172.373001 296.114685,170.403824 289.880249,162.942932 
	C284.922180,157.009537 282.288452,150.028488 280.847473,142.432861 
	C280.530640,140.762878 278.018311,139.509399 276.516968,138.064102 
	C275.353058,139.663803 273.634949,141.114517 273.155457,142.898224 
	C272.440369,145.558151 272.582550,148.451752 272.388702,151.247955 
	C271.920593,158.001205 271.386383,164.752060 271.095428,171.513199 
	C271.049011,172.592392 271.957825,174.474457 272.720276,174.642059 
	C273.773987,174.873672 275.080170,173.740555 276.328308,173.353592 
	C278.268341,172.752167 281.037445,171.183838 282.091980,171.936127 
	C291.599274,178.718506 302.247650,180.236237 313.525482,180.054581 
	C325.822021,179.856522 335.608551,174.997528 342.020905,164.587662 
	C350.462494,150.883530 350.120728,136.537766 343.071014,121.592796 
M105.549789,213.004501 
	C106.823250,213.331116 108.082245,213.862411 109.372345,213.953598 
	C128.199249,215.284546 147.025055,216.871109 165.653076,211.972198 
	C183.131729,207.375519 198.869339,200.192032 210.874710,185.823013 
	C221.423737,173.197037 226.141022,158.470306 226.722183,142.725540 
	C227.288391,127.386246 223.930939,112.454056 217.730042,98.086182 
	C208.864334,77.543869 194.861862,61.899666 175.147064,51.781250 
	C159.756073,43.881981 143.416519,40.067078 125.659569,41.758747 
	C109.265144,43.320610 94.571182,48.808517 81.142357,57.626450 
	C69.879372,65.022209 61.137714,75.085098 54.406643,86.950424 
	C40.923828,110.717506 35.616753,135.562531 43.371586,162.355591 
	C47.904118,178.015579 57.045059,190.317444 70.657219,199.313202 
	C81.077080,206.199295 92.698830,210.030853 105.549789,213.004501 
M462.871338,123.665871 
	C462.281494,121.793365 461.483734,119.956802 461.152252,118.039619 
	C460.695618,115.398514 460.818329,113.108673 464.603790,112.838730 
	C465.792175,112.753990 467.673706,110.886917 467.788269,109.696167 
	C468.010773,107.383438 466.639526,105.815369 463.796082,105.957474 
	C459.976257,106.148354 456.139496,105.998634 452.310028,105.999329 
	C445.483551,106.000557 438.647583,105.819695 431.838867,106.169167 
	C430.526306,106.236534 428.915405,108.204597 428.259247,109.663406 
	C427.985443,110.272102 429.809631,112.781990 430.744781,112.819733 
	C436.338196,113.045509 438.483673,116.361832 440.191925,121.168976 
	C445.903320,137.241364 452.025818,153.167297 457.936066,169.169556 
	C460.158752,175.187668 462.531891,181.098541 458.829651,187.598938 
	C455.906647,192.731079 453.477631,198.175934 451.216431,203.642090 
	C449.817505,207.023773 447.803406,207.714813 444.677216,206.503952 
	C443.601807,206.087418 442.559906,205.552490 441.453644,205.252762 
	C436.039001,203.785629 430.093506,207.176666 429.059845,212.268295 
	C427.989990,217.538422 431.500427,223.255707 436.522217,223.904419 
	C443.397125,224.792511 449.597961,223.319992 453.037445,216.656631 
	C459.283203,204.556671 465.416443,192.389648 471.227325,180.076309 
	C479.926361,161.642944 488.355927,143.081512 496.793213,124.525940 
	C499.502808,118.566925 502.156586,112.747711 510.053528,112.617088 
	C509.934967,110.120735 509.844604,108.218613 509.754089,106.312912 
	C499.958771,106.312912 490.708527,106.312912 481.235291,106.312912 
	C481.235291,108.552940 481.235291,110.479050 481.235291,112.360641 
	C488.714752,113.926254 489.393188,115.157166 486.995575,122.449905 
	C486.841095,122.919670 486.772278,123.420677 486.589813,123.877678 
	C482.698761,133.624435 478.817871,143.375397 474.858032,153.094208 
	C474.544617,153.863403 473.669739,154.403839 472.470673,155.666992 
	C469.162933,144.776031 466.081207,134.629242 462.871338,123.665871 
M395.065491,115.090744 
	C400.533112,118.082512 398.806213,123.799507 399.881653,128.363449 
	C400.673279,131.722824 398.849976,134.276276 395.560822,135.832306 
	C389.008026,138.932297 382.503571,142.143372 376.068115,145.480209 
	C367.267365,150.043488 362.275055,156.977463 362.987762,167.310944 
	C363.333954,172.330536 368.027710,179.437271 372.033936,179.803604 
	C376.291504,180.192932 380.900299,180.544495 384.874176,179.333023 
	C390.687561,177.560730 396.071899,174.381027 401.748535,171.750443 
	C402.251526,172.462952 403.078308,173.691559 403.962738,174.877136 
	C407.965729,180.242844 413.767975,180.580719 419.557617,179.847153 
	C425.130188,179.141068 429.279938,175.738556 431.553619,170.613022 
	C432.082153,169.421631 431.342590,167.085907 430.369873,166.026550 
	C429.777466,165.381363 427.599609,166.053894 426.176605,166.344086 
	C424.351929,166.716156 422.316101,168.039764 420.856262,167.539124 
	C419.823822,167.185013 419.137390,164.499161 419.081726,162.828094 
	C418.617889,148.893204 418.265808,134.953445 418.025146,121.012650 
	C417.868866,111.958305 411.205597,105.010033 402.074524,105.055809 
	C397.137512,105.080551 392.077332,105.090057 387.293945,106.126930 
	C377.122833,108.331657 368.701324,113.576683 363.157318,122.684319 
	C360.334961,127.320816 361.734650,132.736206 365.969757,134.464081 
	C371.787842,136.837814 378.600769,132.601334 378.974640,126.324585 
	C379.093353,124.332321 378.635376,122.235146 379.111542,120.355782 
	C379.536530,118.678421 380.673462,116.119408 381.866364,115.892113 
	C385.906311,115.122345 390.110504,115.214844 395.065491,115.090744 
M686.545288,118.053970 
	C684.251526,115.339310 682.188354,112.379707 679.617065,109.959961 
	C673.927795,104.605995 666.727234,104.774956 659.538879,104.979752 
	C646.901855,105.339783 637.913635,111.435745 631.414673,122.028755 
	C625.120178,132.288559 624.676025,143.334702 627.259644,154.467590 
	C629.174744,162.719910 633.509827,170.073593 640.683960,175.071884 
	C647.020813,179.486877 654.366089,180.126511 661.941162,180.069992 
	C675.391907,179.969666 685.376526,174.238678 691.747009,162.489670 
	C692.463318,161.168701 692.092468,158.253128 691.070190,157.215622 
	C689.254395,155.372787 687.489685,155.865616 685.607422,158.485916 
	C680.487793,165.612732 672.246216,167.686462 664.533813,166.455063 
	C649.997437,164.134109 643.499817,148.422516 645.715576,135.403336 
	C646.021606,135.300278 646.327271,135.108078 646.633667,135.106995 
	C659.787598,135.060379 672.944946,134.848877 686.093689,135.095474 
	C690.838501,135.184448 691.724915,132.766296 690.851013,129.242935 
	C689.954346,125.627991 688.262329,122.210327 686.545288,118.053970 
M798.963135,117.453163 
	C801.606689,120.426086 804.107727,123.548683 806.978333,126.283318 
	C807.872864,127.135559 810.155579,127.609459 811.108032,127.057564 
	C812.387695,126.316071 813.644470,124.450455 813.731323,122.996902 
	C813.852417,120.971359 812.640503,118.905487 812.424683,116.812973 
	C811.826416,111.013519 808.008789,108.205307 803.057068,106.600540 
	C795.477905,104.144257 787.663025,103.968636 780.174500,106.472733 
	C768.222534,110.469383 761.880737,122.397118 765.083069,134.378113 
	C767.204224,142.313934 773.466553,146.271759 780.650269,148.999786 
	C785.859741,150.978104 791.231445,152.570755 796.319641,154.814316 
	C800.751709,156.768585 802.018005,161.064865 800.129639,165.547501 
	C797.144958,172.632736 786.479065,175.049118 781.033569,169.349396 
	C777.338318,165.481659 774.540894,160.697266 771.683289,156.110138 
	C769.981873,153.378891 767.566589,153.031219 765.469849,154.275131 
	C764.354492,154.936813 764.103760,157.618820 764.073242,159.399353 
	C764.037354,161.490173 764.783142,163.581116 764.982483,165.691605 
	C765.794983,174.293427 767.628113,177.187057 774.504639,178.689438 
	C783.639038,180.685120 792.745422,181.071625 801.616394,177.013336 
	C811.256653,172.603088 821.026794,157.342163 813.017334,145.160950 
	C808.831360,138.794662 802.784973,135.036865 795.519958,133.010147 
	C791.583618,131.912003 787.358765,131.177338 783.930664,129.150894 
	C781.420288,127.666901 778.555725,124.380844 778.494934,121.834862 
	C778.435120,119.328178 781.190674,115.945625 783.629395,114.360573 
	C788.346313,111.294846 793.998901,112.701019 798.963135,117.453163 
M711.094788,145.513306 
	C713.920105,146.762741 716.722168,148.068207 719.575928,149.248947 
	C724.272583,151.192230 729.237427,152.642273 733.614563,155.134064 
	C735.649231,156.292328 737.266113,159.243378 737.840027,161.672867 
	C738.823975,165.838654 736.517090,169.002197 732.857422,171.027832 
	C729.238464,173.030899 720.807617,172.605011 718.345703,169.673630 
	C714.665100,165.291107 711.760315,160.263138 708.181458,155.784714 
	C707.279419,154.655991 704.997253,154.013031 703.488770,154.210876 
	C702.541016,154.335190 701.086548,156.506424 701.183594,157.646698 
	C701.571899,162.209549 701.990845,166.885818 703.385620,171.201050 
	C704.153259,173.575974 706.520569,176.001862 708.799927,177.212326 
	C715.309570,180.669266 722.655212,180.742157 729.666931,179.848862 
	C743.296509,178.112488 753.225464,169.203125 753.001770,154.118668 
	C752.868286,145.111008 746.434570,137.695480 735.418884,134.008545 
	C731.225769,132.605118 726.943359,131.463486 722.771301,130.003387 
	C717.316589,128.094406 715.067078,124.451759 716.043701,119.545013 
	C716.698669,116.254364 721.282471,113.279327 725.547791,112.959999 
	C731.295654,112.529678 735.324463,115.258316 738.770325,119.415726 
	C740.665283,121.701965 742.511902,124.075485 744.710022,126.040916 
	C745.636047,126.868912 747.754028,127.391586 748.713562,126.885048 
	C749.824402,126.298683 750.939697,124.375252 750.845642,123.122940 
	C750.627747,120.219276 749.193726,117.376343 749.157593,114.497429 
	C749.113403,110.978668 747.177551,109.497261 744.514709,108.204704 
	C735.926270,104.035858 726.767456,103.576431 718.011353,106.321815 
	C710.328308,108.730766 703.464722,113.727654 702.231018,122.505882 
	C701.016174,131.149979 701.254089,139.939072 711.094788,145.513306 
z"/>
<path fill="#43bfa8" opacity="1.000000" stroke="none" 
	d="
M343.336243,121.854706 
	C350.120728,136.537766 350.462494,150.883530 342.020905,164.587662 
	C335.608551,174.997528 325.822021,179.856522 313.525482,180.054581 
	C302.247650,180.236237 291.599274,178.718506 282.091980,171.936127 
	C281.037445,171.183838 278.268341,172.752167 276.328308,173.353592 
	C275.080170,173.740555 273.773987,174.873672 272.720276,174.642059 
	C271.957825,174.474457 271.049011,172.592392 271.095428,171.513199 
	C271.386383,164.752060 271.920593,158.001205 272.388702,151.247955 
	C272.582550,148.451752 272.440369,145.558151 273.155457,142.898224 
	C273.634949,141.114517 275.353058,139.663803 276.516968,138.064117 
	C278.018311,139.509399 280.530640,140.762878 280.847473,142.432861 
	C282.288452,150.028488 284.922180,157.009537 289.880249,162.942932 
	C296.114685,170.403824 304.617889,172.373001 313.609528,170.771774 
	C321.146790,169.429565 327.809265,165.682877 329.337158,157.127533 
	C331.229034,146.534378 329.506897,137.200958 318.601379,131.929581 
	C314.171631,129.788376 309.633728,127.862305 305.096252,125.954247 
	C293.801056,121.204483 282.406372,116.234200 275.927490,105.175133 
	C269.270050,93.811203 269.963623,74.710251 283.026459,63.902866 
	C296.569489,52.698204 311.241821,53.715233 326.523865,57.399338 
	C330.031342,58.244884 332.644104,59.469444 335.703888,56.101803 
	C338.083496,53.482780 339.736633,55.407970 339.990936,58.434883 
	C340.722748,67.145096 341.590424,75.847816 342.059998,84.572029 
	C342.132324,85.915802 340.657593,87.985001 339.385895,88.535973 
	C338.520630,88.910835 336.263184,87.557915 335.486908,86.401329 
	C331.666962,80.709801 328.902954,74.115883 324.332092,69.164314 
	C316.044556,60.186466 299.598816,61.256447 293.292084,70.979698 
	C287.394226,80.072548 291.240326,94.313728 300.196930,98.036583 
	C306.704834,100.741623 313.148468,103.643013 319.790100,105.974388 
	C328.953552,109.190994 337.377625,113.300072 343.336243,121.854706 
z"/>
<path fill="#43bfa8" opacity="1.000000" stroke="none" 
	d="
M105.134346,212.942398 
	C92.698830,210.030853 81.077080,206.199295 70.657219,199.313202 
	C57.045059,190.317444 47.904118,178.015579 43.371586,162.355591 
	C35.616753,135.562531 40.923828,110.717506 54.406643,86.950424 
	C61.137714,75.085098 69.879372,65.022209 81.142357,57.626450 
	C94.571182,48.808517 109.265144,43.320610 125.659569,41.758747 
	C143.416519,40.067078 159.756073,43.881981 175.147064,51.781250 
	C194.861862,61.899666 208.864334,77.543869 217.730042,98.086182 
	C223.930939,112.454056 227.288391,127.386246 226.722183,142.725540 
	C226.141022,158.470306 221.423737,173.197037 210.874710,185.823013 
	C198.869339,200.192032 183.131729,207.375519 165.653076,211.972198 
	C147.025055,216.871109 128.199249,215.284546 109.372345,213.953598 
	C108.082245,213.862411 106.823250,213.331116 105.134346,212.942398 
M106.909081,205.894028 
	C112.287849,206.593811 117.649841,207.689789 123.048569,207.918533 
	C138.781631,208.585205 154.393494,207.707870 169.579666,202.960754 
	C190.651413,196.373810 207.726196,185.281570 215.006104,163.016159 
	C218.744354,151.582733 220.123062,140.063629 218.124084,128.006485 
	C215.872665,114.426636 212.230408,101.435295 205.154465,89.575401 
	C199.408127,79.944031 191.617676,72.079018 182.761200,65.333893 
	C170.172897,55.746574 155.851028,50.040546 140.090210,49.153290 
	C126.763840,48.403080 113.903595,50.142429 101.112595,55.593082 
	C81.219345,64.070229 67.342094,77.992905 57.733437,96.711868 
	C49.881363,112.008774 46.996426,128.390015 47.948326,145.571335 
	C48.836460,161.601685 55.050598,175.151871 66.362923,186.288330 
	C77.380531,197.134659 91.524323,201.896652 106.909081,205.894028 
z"/>
<path fill="#43bfa8" opacity="1.000000" stroke="none" 
	d="
M549.837830,135.920135 
	C549.837830,147.047775 549.837830,158.175400 549.837830,170.487564 
	C563.312988,169.939667 576.312500,170.364120 588.935364,168.385666 
	C593.408203,167.684616 597.404175,161.476349 600.810120,157.146881 
	C604.034973,153.047653 606.057251,148.022125 608.925964,143.610489 
	C609.729004,142.375519 611.728455,141.071884 613.049805,141.194443 
	C615.917603,141.460434 616.488464,143.818161 615.819641,146.367783 
	C613.082764,156.800003 610.306824,167.222000 607.452026,177.999786 
	C606.030701,177.999786 604.721680,177.999802 603.412659,177.999786 
	C574.424133,177.999527 545.435608,177.998138 516.447083,178.000900 
	C513.756775,178.001160 510.944855,178.436218 510.958527,174.234665 
	C510.967957,171.342041 511.857452,170.090820 514.950378,169.942123 
	C525.610229,169.429642 525.787292,169.330536 525.967163,158.301086 
	C526.409119,131.202911 526.703247,104.102074 526.946411,77.001312 
	C526.972778,74.067482 526.905334,70.823036 525.687683,68.298462 
	C524.896667,66.658531 522.046631,65.644974 519.926575,65.100632 
	C516.910950,64.326347 512.186523,66.633896 512.104248,61.036995 
	C512.020081,55.313267 516.742065,57.086285 519.831482,57.057449 
	C533.824707,56.926868 547.820007,57.027096 561.814270,56.978775 
	C564.703796,56.968796 567.066406,56.983578 567.068359,61.018051 
	C567.070312,65.094841 564.635254,65.022278 561.785400,65.017181 
	C551.336182,64.998489 549.788208,62.466236 549.975098,77.118034 
	C550.094116,86.445824 549.973633,95.776665 549.773438,105.962219 
	C549.670166,116.518913 549.753967,126.219528 549.837830,135.920135 
z"/>
<path fill="#43bfa8" opacity="1.000000" stroke="none" 
	d="
M462.935425,124.074173 
	C466.081207,134.629242 469.162933,144.776031 472.470673,155.666992 
	C473.669739,154.403839 474.544617,153.863403 474.858032,153.094208 
	C478.817871,143.375397 482.698761,133.624435 486.589813,123.877678 
	C486.772278,123.420677 486.841095,122.919670 486.995575,122.449905 
	C489.393188,115.157166 488.714752,113.926254 481.235291,112.360641 
	C481.235291,110.479050 481.235291,108.552940 481.235291,106.312912 
	C490.708527,106.312912 499.958771,106.312912 509.754089,106.312912 
	C509.844604,108.218613 509.934967,110.120735 510.053528,112.617088 
	C502.156586,112.747711 499.502808,118.566925 496.793213,124.525940 
	C488.355927,143.081512 479.926361,161.642944 471.227325,180.076309 
	C465.416443,192.389648 459.283203,204.556671 453.037445,216.656631 
	C449.597961,223.319992 443.397125,224.792511 436.522217,223.904419 
	C431.500427,223.255707 427.989990,217.538422 429.059845,212.268295 
	C430.093506,207.176666 436.039001,203.785629 441.453644,205.252762 
	C442.559906,205.552490 443.601807,206.087418 444.677216,206.503952 
	C447.803406,207.714813 449.817505,207.023773 451.216431,203.642090 
	C453.477631,198.175934 455.906647,192.731079 458.829651,187.598938 
	C462.531891,181.098541 460.158752,175.187668 457.936066,169.169556 
	C452.025818,153.167297 445.903320,137.241364 440.191925,121.168976 
	C438.483673,116.361832 436.338196,113.045509 430.744781,112.819733 
	C429.809631,112.781990 427.985443,110.272102 428.259247,109.663406 
	C428.915405,108.204597 430.526306,106.236534 431.838867,106.169167 
	C438.647583,105.819695 445.483551,106.000557 452.310028,105.999329 
	C456.139496,105.998634 459.976257,106.148354 463.796082,105.957474 
	C466.639526,105.815369 468.010773,107.383438 467.788269,109.696167 
	C467.673706,110.886917 465.792175,112.753990 464.603790,112.838730 
	C460.818329,113.108673 460.695618,115.398514 461.152252,118.039619 
	C461.483734,119.956802 462.281494,121.793365 462.935425,124.074173 
z"/>
<path fill="#43bfa8" opacity="1.000000" stroke="none" 
	d="
M394.658722,115.034302 
	C390.110504,115.214844 385.906311,115.122345 381.866364,115.892113 
	C380.673462,116.119408 379.536530,118.678421 379.111542,120.355782 
	C378.635376,122.235146 379.093353,124.332321 378.974640,126.324585 
	C378.600769,132.601334 371.787842,136.837814 365.969757,134.464081 
	C361.734650,132.736206 360.334961,127.320816 363.157318,122.684319 
	C368.701324,113.576683 377.122833,108.331657 387.293945,106.126930 
	C392.077332,105.090057 397.137512,105.080551 402.074524,105.055809 
	C411.205597,105.010033 417.868866,111.958305 418.025146,121.012650 
	C418.265808,134.953445 418.617889,148.893204 419.081726,162.828094 
	C419.137390,164.499161 419.823822,167.185013 420.856262,167.539124 
	C422.316101,168.039764 424.351929,166.716156 426.176605,166.344086 
	C427.599609,166.053894 429.777466,165.381363 430.369873,166.026550 
	C431.342590,167.085907 432.082153,169.421631 431.553619,170.613022 
	C429.279938,175.738556 425.130188,179.141068 419.557617,179.847153 
	C413.767975,180.580719 407.965729,180.242844 403.962738,174.877136 
	C403.078308,173.691559 402.251526,172.462952 401.748535,171.750443 
	C396.071899,174.381027 390.687561,177.560730 384.874176,179.333023 
	C380.900299,180.544495 376.291504,180.192932 372.033936,179.803604 
	C368.027710,179.437271 363.333954,172.330536 362.987762,167.310944 
	C362.275055,156.977463 367.267365,150.043488 376.068115,145.480209 
	C382.503571,142.143372 389.008026,138.932297 395.560822,135.832306 
	C398.849976,134.276276 400.673279,131.722824 399.881653,128.363449 
	C398.806213,123.799507 400.533112,118.082512 394.658722,115.034302 
M399.360657,143.012894 
	C391.734802,144.188065 386.058075,148.291382 383.217285,155.340775 
	C382.117767,158.069244 382.194275,161.966934 383.317413,164.675873 
	C384.216125,166.843414 387.510010,169.368240 389.739868,169.367310 
	C395.294037,169.364990 399.862152,163.780350 399.967438,158.069931 
	C400.056061,153.265396 399.892303,148.456207 399.360657,143.012894 
z"/>
<path fill="#43bfa8" opacity="1.000000" stroke="none" 
	d="
M686.731812,118.380150 
	C688.262329,122.210327 689.954346,125.627991 690.851013,129.242935 
	C691.724915,132.766296 690.838501,135.184448 686.093689,135.095474 
	C672.944946,134.848877 659.787598,135.060379 646.633667,135.106995 
	C646.327271,135.108078 646.021606,135.300278 645.717224,135.408203 
	C643.499817,148.422516 649.997437,164.134109 664.533813,166.455063 
	C672.246216,167.686462 680.487793,165.612732 685.607422,158.485916 
	C687.489685,155.865616 689.254395,155.372787 691.070190,157.215622 
	C692.092468,158.253128 692.463318,161.168701 691.747009,162.489670 
	C685.376526,174.238678 675.391907,179.969666 661.941162,180.069992 
	C654.366089,180.126511 647.020813,179.486877 640.683960,175.071884 
	C633.509827,170.073593 629.174744,162.719910 627.259644,154.467590 
	C624.676025,143.334702 625.120178,132.288559 631.414673,122.028755 
	C637.913635,111.435745 646.901855,105.339783 659.538879,104.979752 
	C666.727234,104.774956 673.927795,104.605995 679.617065,109.959961 
	C682.188354,112.379707 684.251526,115.339310 686.731812,118.380150 
M648.406677,120.168839 
	C647.654785,122.632027 646.902832,125.095207 646.019836,127.987785 
	C653.130737,127.987785 659.777039,128.142654 666.403442,127.848907 
	C667.635681,127.794289 669.642883,126.076218 669.839294,124.886032 
	C671.198730,116.648750 663.644958,110.115250 656.114685,113.244629 
	C653.318237,114.406784 651.296021,117.432014 648.406677,120.168839 
z"/>
<path fill="#43bfa8" opacity="1.000000" stroke="none" 
	d="
M798.700439,117.199417 
	C793.998901,112.701019 788.346313,111.294846 783.629395,114.360573 
	C781.190674,115.945625 778.435120,119.328178 778.494934,121.834862 
	C778.555725,124.380844 781.420288,127.666901 783.930664,129.150894 
	C787.358765,131.177338 791.583618,131.912003 795.519958,133.010147 
	C802.784973,135.036865 808.831360,138.794662 813.017334,145.160950 
	C821.026794,157.342163 811.256653,172.603088 801.616394,177.013336 
	C792.745422,181.071625 783.639038,180.685120 774.504639,178.689438 
	C767.628113,177.187057 765.794983,174.293427 764.982483,165.691605 
	C764.783142,163.581116 764.037354,161.490173 764.073242,159.399353 
	C764.103760,157.618820 764.354492,154.936813 765.469849,154.275131 
	C767.566589,153.031219 769.981873,153.378891 771.683289,156.110138 
	C774.540894,160.697266 777.338318,165.481659 781.033569,169.349396 
	C786.479065,175.049118 797.144958,172.632736 800.129639,165.547501 
	C802.018005,161.064865 800.751709,156.768585 796.319641,154.814316 
	C791.231445,152.570755 785.859741,150.978104 780.650269,148.999786 
	C773.466553,146.271759 767.204224,142.313934 765.083069,134.378113 
	C761.880737,122.397118 768.222534,110.469383 780.174500,106.472733 
	C787.663025,103.968636 795.477905,104.144257 803.057068,106.600540 
	C808.008789,108.205307 811.826416,111.013519 812.424683,116.812973 
	C812.640503,118.905487 813.852417,120.971359 813.731323,122.996902 
	C813.644470,124.450455 812.387695,126.316071 811.108032,127.057564 
	C810.155579,127.609459 807.872864,127.135559 806.978333,126.283318 
	C804.107727,123.548683 801.606689,120.426086 798.700439,117.199417 
z"/>
<path fill="#43bfa8" opacity="1.000000" stroke="none" 
	d="
M710.818115,145.267944 
	C701.254089,139.939072 701.016174,131.149979 702.231018,122.505882 
	C703.464722,113.727654 710.328308,108.730766 718.011353,106.321815 
	C726.767456,103.576431 735.926270,104.035858 744.514709,108.204704 
	C747.177551,109.497261 749.113403,110.978668 749.157593,114.497429 
	C749.193726,117.376343 750.627747,120.219276 750.845642,123.122940 
	C750.939697,124.375252 749.824402,126.298683 748.713562,126.885048 
	C747.754028,127.391586 745.636047,126.868912 744.710022,126.040916 
	C742.511902,124.075485 740.665283,121.701965 738.770325,119.415726 
	C735.324463,115.258316 731.295654,112.529678 725.547791,112.959999 
	C721.282471,113.279327 716.698669,116.254364 716.043701,119.545013 
	C715.067078,124.451759 717.316589,128.094406 722.771301,130.003387 
	C726.943359,131.463486 731.225769,132.605118 735.418884,134.008545 
	C746.434570,137.695480 752.868286,145.111008 753.001770,154.118668 
	C753.225464,169.203125 743.296509,178.112488 729.666931,179.848862 
	C722.655212,180.742157 715.309570,180.669266 708.799927,177.212326 
	C706.520569,176.001862 704.153259,173.575974 703.385620,171.201050 
	C701.990845,166.885818 701.571899,162.209549 701.183594,157.646698 
	C701.086548,156.506424 702.541016,154.335190 703.488770,154.210876 
	C704.997253,154.013031 707.279419,154.655991 708.181458,155.784714 
	C711.760315,160.263138 714.665100,165.291107 718.345703,169.673630 
	C720.807617,172.605011 729.238464,173.030899 732.857422,171.027832 
	C736.517090,169.002197 738.823975,165.838654 737.840027,161.672867 
	C737.266113,159.243378 735.649231,156.292328 733.614563,155.134064 
	C729.237427,152.642273 724.272583,151.192230 719.575928,149.248947 
	C716.722168,148.068207 713.920105,146.762741 710.818115,145.267944 
z"/>
<path fill="#43bfa8" opacity="1.000000" stroke="none" 
	d="
M549.902954,135.463074 
	C549.753967,126.219528 549.670166,116.518913 549.710571,106.429787 
	C549.879211,115.696175 549.923706,125.351089 549.902954,135.463074 
z"/>
<path fill="#000000" opacity="1.000000" stroke="none" 
	d="
M106.509521,205.736359 
	C91.524323,201.896652 77.380531,197.134659 66.362923,186.288330 
	C55.050598,175.151871 48.836460,161.601685 47.948326,145.571335 
	C46.996426,128.390015 49.881363,112.008774 57.733437,96.711868 
	C67.342094,77.992905 81.219345,64.070229 101.112595,55.593082 
	C113.903595,50.142429 126.763840,48.403080 140.090210,49.153290 
	C155.851028,50.040546 170.172897,55.746574 182.761200,65.333893 
	C191.617676,72.079018 199.408127,79.944031 205.154465,89.575401 
	C212.230408,101.435295 215.872665,114.426636 218.124084,128.006485 
	C220.123062,140.063629 218.744354,151.582733 215.006104,163.016159 
	C207.726196,185.281570 190.651413,196.373810 169.579666,202.960754 
	C154.393494,207.707870 138.781631,208.585205 123.048569,207.918533 
	C117.649841,207.689789 112.287849,206.593811 106.509521,205.736359 
M155.666000,137.989548 
	C154.744904,138.340683 153.832397,138.716568 152.901398,139.039124 
	C142.776215,142.547012 132.986435,148.678192 121.749573,142.123322 
	C118.680687,140.333145 114.999474,139.617813 111.657341,138.265656 
	C104.716270,135.457458 98.668579,138.328568 95.824097,145.267014 
	C93.379639,151.229721 93.723785,157.239487 93.357178,163.451019 
	C92.976326,169.903824 94.098007,175.403625 96.494690,181.020309 
	C98.460197,185.626526 104.057236,189.349335 110.363022,187.019836 
	C115.594810,185.087082 120.985184,183.542267 126.101166,181.349350 
	C130.896606,179.293839 135.435715,179.044342 140.236557,181.079620 
	C144.757248,182.996140 149.367584,184.703568 153.954788,186.460358 
	C161.849442,189.483795 166.963898,187.239105 170.781235,179.631104 
	C173.625687,173.962067 173.096283,168.101074 173.628830,162.095001 
	C174.267761,154.889236 172.121536,149.186386 169.561600,143.252014 
	C167.135864,137.628738 162.669785,136.039352 155.666000,137.989548 
M151.662796,128.098282 
	C158.254547,125.579613 164.726715,126.038498 171.283905,128.462509 
	C172.593216,128.946503 175.119720,128.478836 175.867706,127.510117 
	C176.685867,126.450508 176.153244,124.298370 176.095901,122.626289 
	C176.038376,120.948326 175.721039,119.274704 175.727280,117.599960 
	C175.746521,112.424698 176.994995,106.947250 175.706711,102.138924 
	C173.170456,92.672607 161.930603,87.214760 152.904449,93.409813 
	C147.161057,97.351768 142.773849,109.133224 146.029602,116.384727 
	C146.801163,118.103180 146.287018,120.432304 146.233917,122.477135 
	C146.190460,124.150497 145.224258,126.474960 145.987167,127.322281 
	C146.927917,128.367142 149.236221,128.180740 151.662796,128.098282 
M90.779457,128.116974 
	C91.681389,128.398941 92.773140,129.160233 93.456276,128.889694 
	C101.411880,125.739151 109.279015,125.434143 117.272499,128.829453 
	C118.111198,129.185684 120.109917,128.397903 120.607834,127.565262 
	C121.221817,126.538528 120.955536,124.897224 120.836113,123.542091 
	C120.682014,121.793671 120.009857,120.056259 120.066277,118.330627 
	C120.217484,113.705719 121.229042,109.035660 120.813347,104.482651 
	C120.188004,97.633553 113.244232,91.319099 107.058891,91.002678 
	C95.400635,90.406288 85.718590,104.045341 90.009064,115.002670 
	C91.166145,117.957695 93.198921,120.833618 90.128700,124.001579 
	C89.561722,124.586601 90.201302,126.340950 90.779457,128.116974 
M94.037552,80.470589 
	C90.924416,82.261909 87.660721,83.849754 84.792519,85.972084 
	C83.962814,86.586044 83.728973,88.967369 84.221260,90.106659 
	C84.627701,91.047241 86.888069,92.171761 87.676582,91.807396 
	C94.371109,88.713898 101.002945,85.449806 107.410172,81.808578 
	C108.330711,81.285431 107.952858,78.477570 108.175880,76.727043 
	C106.483521,76.518829 104.614189,75.752182 103.136246,76.220551 
	C100.208168,77.148483 97.496201,78.758331 94.037552,80.470589 
M167.398468,78.105095 
	C166.216370,77.539238 165.073929,76.630539 163.842865,76.488220 
	C162.015305,76.276924 158.978165,75.965401 158.489868,76.836578 
	C157.317703,78.927864 157.466904,81.497780 160.471481,82.892609 
	C166.229889,85.565872 171.817169,88.623123 177.653610,91.101471 
	C178.998291,91.672462 181.062347,90.549416 182.795349,90.205956 
	C182.095673,88.438774 181.900757,85.882057 180.602097,85.051842 
	C176.640060,82.518921 172.252914,80.651001 167.398468,78.105095 
z"/>
<path fill="#000000" opacity="1.000000" stroke="none" 
	d="
M399.600464,143.330994 
	C399.892303,148.456207 400.056061,153.265396 399.967438,158.069931 
	C399.862152,163.780350 395.294037,169.364990 389.739868,169.367310 
	C387.510010,169.368240 384.216125,166.843414 383.317413,164.675873 
	C382.194275,161.966934 382.117767,158.069244 383.217285,155.340775 
	C386.058075,148.291382 391.734802,144.188065 399.600464,143.330994 
z"/>
<path fill="#000000" opacity="1.000000" stroke="none" 
	d="
M648.663696,119.888229 
	C651.296021,117.432014 653.318237,114.406784 656.114685,113.244629 
	C663.644958,110.115250 671.198730,116.648750 669.839294,124.886032 
	C669.642883,126.076218 667.635681,127.794289 666.403442,127.848907 
	C659.777039,128.142654 653.130737,127.987785 646.019836,127.987785 
	C646.902832,125.095207 647.654785,122.632027 648.663696,119.888229 
z"/>
<path fill="#58dbdb" opacity="1.000000" stroke="none" 
	d="
M156.068909,137.918655 
	C162.669785,136.039352 167.135864,137.628738 169.561600,143.252014 
	C172.121536,149.186386 174.267761,154.889236 173.628830,162.095001 
	C173.096283,168.101074 173.625687,173.962067 170.781235,179.631104 
	C166.963898,187.239105 161.849442,189.483795 153.954788,186.460358 
	C149.367584,184.703568 144.757248,182.996140 140.236557,181.079620 
	C135.435715,179.044342 130.896606,179.293839 126.101166,181.349350 
	C120.985184,183.542267 115.594810,185.087082 110.363022,187.019836 
	C104.057236,189.349335 98.460197,185.626526 96.494690,181.020309 
	C94.098007,175.403625 92.976326,169.903824 93.357178,163.451019 
	C93.723785,157.239487 93.379639,151.229721 95.824097,145.267014 
	C98.668579,138.328568 104.716270,135.457458 111.657341,138.265656 
	C114.999474,139.617813 118.680687,140.333145 121.749573,142.123322 
	C132.986435,148.678192 142.776215,142.547012 152.901398,139.039124 
	C153.832397,138.716568 154.744904,138.340683 156.068909,137.918655 
M163.993942,175.529083 
	C164.221817,174.915222 164.414078,174.285263 164.683060,173.689972 
	C167.487564,167.483490 166.760040,165.830780 160.217224,163.598312 
	C156.030075,162.169632 151.827438,160.784698 147.657669,159.306946 
	C134.836929,154.763321 122.013611,150.226044 109.226067,145.590363 
	C105.983757,144.414993 103.784584,144.767609 102.982628,148.536423 
	C102.710228,149.816605 102.247528,151.057343 101.854065,152.310547 
	C99.974907,158.295578 100.443886,159.067886 106.451645,161.216217 
	C123.259415,167.226501 140.049530,173.286530 156.825562,179.384842 
	C160.248352,180.629074 162.898819,180.545685 163.993942,175.529083 
M146.308716,150.683243 
	C152.667328,152.854507 159.025940,155.025787 166.682251,157.640167 
	C165.407990,153.285049 164.839539,150.238266 163.570602,147.518265 
	C163.020035,146.338135 160.760651,144.888840 159.735260,145.179108 
	C155.007324,146.517517 150.440674,148.425720 146.308716,150.683243 
M113.288086,177.873672 
	C115.491844,177.042267 117.695602,176.210846 119.899368,175.379440 
	C119.921715,175.004562 119.944069,174.629700 119.966415,174.254837 
	C113.916412,172.083191 107.866409,169.911560 100.415367,167.237030 
	C101.461868,171.181702 102.163742,173.915710 102.914703,176.636169 
	C103.904068,180.220245 106.152153,180.828888 109.310738,179.313675 
	C110.344978,178.817535 111.434723,178.437103 113.288086,177.873672 
z"/>
<path fill="#43bfa8" opacity="1.000000" stroke="none" 
	d="
M151.308167,128.312347 
	C149.236221,128.180740 146.927917,128.367142 145.987167,127.322281 
	C145.224258,126.474960 146.190460,124.150497 146.233917,122.477135 
	C146.287018,120.432304 146.801163,118.103180 146.029602,116.384727 
	C142.773849,109.133224 147.161057,97.351768 152.904449,93.409813 
	C161.930603,87.214760 173.170456,92.672607 175.706711,102.138924 
	C176.994995,106.947250 175.746521,112.424698 175.727280,117.599960 
	C175.721039,119.274704 176.038376,120.948326 176.095901,122.626289 
	C176.153244,124.298370 176.685867,126.450508 175.867706,127.510117 
	C175.119720,128.478836 172.593216,128.946503 171.283905,128.462509 
	C164.726715,126.038498 158.254547,125.579613 151.308167,128.312347 
M166.927032,101.794991 
	C164.849350,98.823868 162.408875,97.348106 158.611725,98.950752 
	C153.929947,100.926781 151.395416,108.631554 153.315613,114.801758 
	C155.183899,120.805115 159.980667,118.579704 163.898743,119.006065 
	C167.703278,119.420074 168.596909,116.115974 168.689621,113.992798 
	C168.854843,110.208961 167.737167,106.369095 166.927032,101.794991 
z"/>
<path fill="#43bfa8" opacity="1.000000" stroke="none" 
	d="
M90.531723,127.836281 
	C90.201302,126.340950 89.561722,124.586601 90.128700,124.001579 
	C93.198921,120.833618 91.166145,117.957695 90.009064,115.002670 
	C85.718590,104.045341 95.400635,90.406288 107.058891,91.002678 
	C113.244232,91.319099 120.188004,97.633553 120.813347,104.482651 
	C121.229042,109.035660 120.217484,113.705719 120.066277,118.330627 
	C120.009857,120.056259 120.682014,121.793671 120.836113,123.542091 
	C120.955536,124.897224 121.221817,126.538528 120.607834,127.565262 
	C120.109917,128.397903 118.111198,129.185684 117.272499,128.829453 
	C109.279015,125.434143 101.411880,125.739151 93.456276,128.889694 
	C92.773140,129.160233 91.681389,128.398941 90.531723,127.836281 
M113.603088,107.142792 
	C112.844597,102.471817 110.227623,98.658020 105.655884,98.299507 
	C100.870667,97.924248 98.755669,102.487297 97.420303,106.352028 
	C96.008629,110.437607 96.458176,115.411301 99.892456,117.774300 
	C102.419380,119.512978 107.368011,119.709785 110.198296,118.380699 
	C112.319962,117.384369 112.828308,112.881424 113.956398,109.902405 
	C114.172935,109.330582 113.931137,108.585190 113.603088,107.142792 
z"/>
<path fill="#43bfa8" opacity="1.000000" stroke="none" 
	d="
M94.366226,80.278442 
	C97.496201,78.758331 100.208168,77.148483 103.136246,76.220551 
	C104.614189,75.752182 106.483521,76.518829 108.175880,76.727043 
	C107.952858,78.477570 108.330711,81.285431 107.410172,81.808578 
	C101.002945,85.449806 94.371109,88.713898 87.676582,91.807396 
	C86.888069,92.171761 84.627701,91.047241 84.221260,90.106659 
	C83.728973,88.967369 83.962814,86.586044 84.792519,85.972084 
	C87.660721,83.849754 90.924416,82.261909 94.366226,80.278442 
z"/>
<path fill="#43bfa8" opacity="1.000000" stroke="none" 
	d="
M167.714844,78.314697 
	C172.252914,80.651001 176.640060,82.518921 180.602097,85.051842 
	C181.900757,85.882057 182.095673,88.438774 182.795349,90.205956 
	C181.062347,90.549416 178.998291,91.672462 177.653610,91.101471 
	C171.817169,88.623123 166.229889,85.565872 160.471481,82.892609 
	C157.466904,81.497780 157.317703,78.927864 158.489868,76.836578 
	C158.978165,75.965401 162.015305,76.276924 163.842865,76.488220 
	C165.073929,76.630539 166.216370,77.539238 167.714844,78.314697 
z"/>
<path fill="#000000" opacity="1.000000" stroke="none" 
	d="
M163.930084,175.933258 
	C162.898819,180.545685 160.248352,180.629074 156.825562,179.384842 
	C140.049530,173.286530 123.259415,167.226501 106.451645,161.216217 
	C100.443886,159.067886 99.974907,158.295578 101.854065,152.310547 
	C102.247528,151.057343 102.710228,149.816605 102.982628,148.536423 
	C103.784584,144.767609 105.983757,144.414993 109.226067,145.590363 
	C122.013611,150.226044 134.836929,154.763321 147.657669,159.306946 
	C151.827438,160.784698 156.030075,162.169632 160.217224,163.598312 
	C166.760040,165.830780 167.487564,167.483490 164.683060,173.689972 
	C164.414078,174.285263 164.221817,174.915222 163.930084,175.933258 
M125.263985,163.060287 
	C129.506592,164.700333 133.673111,166.617828 138.037262,167.814774 
	C139.381546,168.183472 141.265350,166.585098 142.902115,165.887436 
	C141.929459,164.087967 141.398514,161.526627 139.889740,160.651855 
	C136.987274,158.969086 133.569870,158.109497 130.295746,157.147751 
	C125.201759,155.651443 123.631241,157.248642 125.263985,163.060287 
z"/>
<path fill="#000000" opacity="1.000000" stroke="none" 
	d="
M146.062454,150.406433 
	C150.440674,148.425720 155.007324,146.517517 159.735260,145.179108 
	C160.760651,144.888840 163.020035,146.338135 163.570602,147.518265 
	C164.839539,150.238266 165.407990,153.285049 166.682251,157.640167 
	C159.025940,155.025787 152.667328,152.854507 146.062454,150.406433 
z"/>
<path fill="#000000" opacity="1.000000" stroke="none" 
	d="
M112.893585,177.938721 
	C111.434723,178.437103 110.344978,178.817535 109.310738,179.313675 
	C106.152153,180.828888 103.904068,180.220245 102.914703,176.636169 
	C102.163742,173.915710 101.461868,171.181702 100.415367,167.237030 
	C107.866409,169.911560 113.916412,172.083191 119.966415,174.254837 
	C119.944069,174.629700 119.921715,175.004562 119.899368,175.379440 
	C117.695602,176.210846 115.491844,177.042267 112.893585,177.938721 
z"/>
<path fill="#000000" opacity="1.000000" stroke="none" 
	d="
M167.041504,102.173828 
	C167.737167,106.369095 168.854843,110.208961 168.689621,113.992798 
	C168.596909,116.115974 167.703278,119.420074 163.898743,119.006065 
	C159.980667,118.579704 155.183899,120.805115 153.315613,114.801758 
	C151.395416,108.631554 153.929947,100.926781 158.611725,98.950752 
	C162.408875,97.348106 164.849350,98.823868 167.041504,102.173828 
z"/>
<path fill="#000000" opacity="1.000000" stroke="none" 
	d="
M113.751938,107.531334 
	C113.931137,108.585190 114.172935,109.330582 113.956398,109.902405 
	C112.828308,112.881424 112.319962,117.384369 110.198296,118.380699 
	C107.368011,119.709785 102.419380,119.512978 99.892456,117.774300 
	C96.458176,115.411301 96.008629,110.437607 97.420303,106.352028 
	C98.755669,102.487297 100.870667,97.924248 105.655884,98.299507 
	C110.227623,98.658020 112.844597,102.471817 113.751938,107.531334 
z"/>
<path fill="#58dbdb" opacity="1.000000" stroke="none" 
	d="
M124.888672,162.922424 
	C123.631241,157.248642 125.201759,155.651443 130.295746,157.147751 
	C133.569870,158.109497 136.987274,158.969086 139.889740,160.651855 
	C141.398514,161.526627 141.929459,164.087967 142.902115,165.887436 
	C141.265350,166.585098 139.381546,168.183472 138.037262,167.814774 
	C133.673111,166.617828 129.506592,164.700333 124.888672,162.922424 
z"/>
</svg>